<?xml version="1.0" encoding="UTF-8" standalone="no"?>
<svg
   xmlns:dc="http://purl.org/dc/elements/1.1/"
   xmlns:cc="http://creativecommons.org/ns#"
   xmlns:rdf="http://www.w3.org/1999/02/22-rdf-syntax-ns#"
   xmlns:svg="http://www.w3.org/2000/svg"
   xmlns="http://www.w3.org/2000/svg"
   xmlns:sodipodi="http://sodipodi.sourceforge.net/DTD/sodipodi-0.dtd"
   xmlns:inkscape="http://www.inkscape.org/namespaces/inkscape"
   sodipodi:docname="efr-logo-pl-1.svg"
   inkscape:version="1.0 (1.0+r73+1)"
   id="svg522"
   version="1.1"
   viewBox="0 0 106.62422 23.997709"
   height="23.997709mm"
   width="106.62422mm">
  <defs
     id="defs516" />
  <sodipodi:namedview
     inkscape:window-maximized="1"
     inkscape:window-y="0"
     inkscape:window-x="0"
     inkscape:window-height="1383"
     inkscape:window-width="1276"
     showgrid="false"
     inkscape:document-rotation="0"
     inkscape:current-layer="layer1"
     inkscape:document-units="mm"
     inkscape:cy="-14.649991"
     inkscape:cx="172.92316"
     inkscape:zoom="0.35"
     inkscape:pageshadow="2"
     inkscape:pageopacity="0.0"
     borderopacity="1.0"
     bordercolor="#666666"
     pagecolor="#ffffff"
     id="base" />
  <metadata
     id="metadata519">
    <rdf:RDF>
      <cc:Work
         rdf:about="">
        <dc:format>image/svg+xml</dc:format>
        <dc:type
           rdf:resource="http://purl.org/dc/dcmitype/StillImage" />
        <dc:title></dc:title>
      </cc:Work>
    </rdf:RDF>
  </metadata>
  <g
     transform="translate(-60.080747,-152.04281)"
     id="layer1"
     inkscape:groupmode="layer"
     inkscape:label="Layer 1">
    <g
       id="g788">
      <path
         id="path90"
         style="fill:#254aa5;fill-opacity:1;fill-rule:nonzero;stroke:none;stroke-width:0.0352777"
         d="m 166.70497,176.04052 h -35.99603 v -23.99771 h 35.99603 v 23.99771" />
      <path
         id="path92"
         style="fill:#fff200;fill-opacity:1;fill-rule:nonzero;stroke:none;stroke-width:0.0352777"
         d="m 147.93966,157.27345 0.7613,-0.55492 0.75882,0.55492 -0.28998,-0.89641 0.77223,-0.55421 h -0.95109 l -0.28998,-0.90735 -0.29034,0.90735 h -0.95391 l 0.77012,0.55421 -0.28717,0.89641" />
      <path
         id="path94"
         style="fill:#fff200;fill-opacity:1;fill-rule:nonzero;stroke:none;stroke-width:0.0352777"
         d="m 144.00831,158.3279 0.76129,-0.55492 0.75883,0.55492 -0.28963,-0.8957 0.77188,-0.55492 h -0.95074 l -0.2921,-0.90911 -0.29034,0.91158 -0.94897,-0.002 0.77011,0.55492 -0.29033,0.8957" />
      <path
         id="path96"
         style="fill:#fff200;fill-opacity:1;fill-rule:nonzero;stroke:none;stroke-width:0.0352777"
         d="m 141.89129,158.85213 -0.28999,0.91017 -0.95108,-0.002 0.77011,0.55457 -0.28787,0.89606 0.75883,-0.55281 0.76129,0.55281 -0.28963,-0.89606 0.77259,-0.55457 h -0.95145 l -0.2928,-0.9084" />
      <path
         id="path98"
         style="fill:#fff200;fill-opacity:1;fill-rule:nonzero;stroke:none;stroke-width:0.0352777"
         d="m 140.8386,164.57955 0.75635,0.55724 -0.28751,-0.8964 0.77223,-0.55425 h -0.95073 l -0.29034,-0.9095 -0.29492,0.91186 -0.94898,-0.002 0.76977,0.55425 -0.28717,0.89641 0.7613,-0.55725" />
      <path
         id="path100"
         style="fill:#fff200;fill-opacity:1;fill-rule:nonzero;stroke:none;stroke-width:0.0352777"
         d="m 142.18339,167.62293 -0.29245,-0.90703 -0.28964,0.90703 h -0.95144 l 0.77012,0.557 -0.28787,0.89351 0.75883,-0.55478 0.76129,0.55478 -0.28963,-0.89351 0.77258,-0.557 h -0.95179" />
      <path
         id="path102"
         style="fill:#fff200;fill-opacity:1;fill-rule:nonzero;stroke:none;stroke-width:0.0352777"
         d="m 145.06382,170.5047 -0.28998,-0.90689 -0.29281,0.90936 -0.95074,-0.002 0.77224,0.55491 -0.28787,0.89574 0.75918,-0.55495 0.76094,0.55495 -0.28963,-0.89574 0.77258,-0.55491 h -0.95391" />
      <path
         id="path104"
         style="fill:#fff200;fill-opacity:1;fill-rule:nonzero;stroke:none;stroke-width:0.0352777"
         d="m 148.99059,171.54853 -0.29034,-0.90907 -0.28998,0.90907 h -0.95356 l 0.77258,0.55316 -0.29033,0.89753 0.76129,-0.55453 0.7613,0.55453 -0.29246,-0.89753 0.77541,-0.55316 h -0.95391" />
      <path
         id="path106"
         style="fill:#fff200;fill-opacity:1;fill-rule:nonzero;stroke:none;stroke-width:0.0352777"
         d="m 152.917,170.5047 -0.29245,-0.90689 -0.29245,0.90936 -0.94686,-0.002 0.76835,0.55491 -0.28786,0.89574 0.75882,-0.55495 0.7613,0.55495 -0.28999,-0.89574 0.77541,-0.55491 H 152.917" />
      <path
         id="path108"
         style="fill:#fff200;fill-opacity:1;fill-rule:nonzero;stroke:none;stroke-width:0.0352777"
         d="m 155.79955,167.62293 -0.29245,-0.90703 -0.28963,0.90703 h -0.94968 l 0.77047,0.557 -0.29246,0.89351 0.7613,-0.55478 0.76129,0.55478 -0.29033,-0.89351 0.77329,-0.557 h -0.9518" />
      <path
         id="path110"
         style="fill:#fff200;fill-opacity:1;fill-rule:nonzero;stroke:none;stroke-width:0.0352777"
         d="m 157.79275,163.67499 h -0.95145 l -0.28786,-0.90936 -0.29422,0.90936 h -0.94827 l 0.77153,0.55478 -0.29281,0.89588 0.76377,-0.55482 0.75882,0.55482 -0.28963,-0.89588 0.77012,-0.55478" />
      <path
         id="path112"
         style="fill:#fff200;fill-opacity:1;fill-rule:nonzero;stroke:none;stroke-width:0.0352777"
         d="m 154.74651,161.1974 0.76129,-0.55175 0.76095,0.55175 -0.28999,-0.89571 0.77223,-0.55174 h -0.95073 l -0.29246,-0.91123 -0.28963,0.91335 -0.95003,-0.002 0.77082,0.55174 -0.29245,0.8957" />
      <path
         id="path114"
         style="fill:#fff200;fill-opacity:1;fill-rule:nonzero;stroke:none;stroke-width:0.0352777"
         d="m 152.63584,155.96817 -0.28716,0.91158 -0.95391,-0.002 0.77258,0.55457 -0.28786,0.89781 0.76129,-0.55738 0.75636,0.55738 -0.28787,-0.89781 0.77011,-0.55457 h -0.95073 l -0.29281,-0.90946" />
      <path
         id="path116"
         style="fill:#231f20;fill-opacity:1;fill-rule:nonzero;stroke:none;stroke-width:0.0352777"
         d="m 74.223714,167.66413 v -3.9605 h 2.417445 v 0.47435 h -1.86302 v 1.17725 h 1.65735 v 0.46303 h -1.65735 v 1.37142 h 2.005895 v 0.47445 h -2.56032" />
      <path
         id="path118"
         style="fill:#231f20;fill-opacity:1;fill-rule:nonzero;stroke:none;stroke-width:0.0352777"
         d="m 79.68175,167.51529 c -0.122061,0.0307 -0.282928,0.0631 -0.482953,0.0973 -0.200025,0.0343 -0.4318,0.0515 -0.694619,0.0515 -0.2286,0 -0.420864,-0.0331 -0.577144,-0.10019 -0.156281,-0.0663 -0.28187,-0.16079 -0.37712,-0.28289 -0.09525,-0.12171 -0.164042,-0.26571 -0.205669,-0.43148 -0.04198,-0.16577 -0.06279,-0.3496 -0.06279,-0.55136 v -1.66878 h 0.531284 v 1.55441 c 0,0.36202 0.05715,0.62096 0.17145,0.77721 0.1143,0.15628 0.306563,0.23428 0.577144,0.23428 0.0575,0 0.116417,-0.002 0.177094,-0.006 0.06103,-0.004 0.118181,-0.008 0.171803,-0.0141 0.05327,-0.006 0.1016,-0.0117 0.145697,-0.0174 0.04375,-0.006 0.07514,-0.0122 0.09419,-0.0201 v -2.50871 h 0.531636 v 2.88586" />
      <path
         id="path120"
         style="fill:#231f20;fill-opacity:1;fill-rule:nonzero;stroke:none;stroke-width:0.0352777"
         d="m 81.664714,164.62943 c 0.04586,0 0.09807,0.003 0.157339,0.008 0.05891,0.006 0.117122,0.0134 0.174272,0.0229 0.0568,0.01 0.109361,0.0192 0.156986,0.0285 0.04763,0.01 0.0829,0.0182 0.105834,0.0257 l -0.09137,0.46302 c -0.04198,-0.0151 -0.111478,-0.0335 -0.208844,-0.0543 -0.09701,-0.0211 -0.221898,-0.0315 -0.374298,-0.0315 -0.09913,0 -0.197202,0.0105 -0.294216,0.0315 -0.09737,0.0208 -0.16122,0.0351 -0.191559,0.0427 v 2.49756 h -0.531283 v -2.84607 c 0.125589,-0.0457 0.28187,-0.0887 0.468489,-0.12869 0.186619,-0.04 0.396169,-0.0599 0.62865,-0.0599" />
      <path
         id="path122"
         style="fill:#231f20;fill-opacity:1;fill-rule:nonzero;stroke:none;stroke-width:0.0352777"
         d="m 84.813608,166.10972 c 0,-0.33528 -0.07549,-0.60113 -0.225777,-0.79749 -0.150637,-0.19611 -0.355248,-0.29422 -0.614539,-0.29422 -0.258939,0 -0.463903,0.0981 -0.614186,0.29422 -0.150637,0.19636 -0.225778,0.46221 -0.225778,0.79749 0,0.33524 0.07514,0.60096 0.225778,0.79703 0.150283,0.19611 0.355247,0.29464 0.614186,0.29464 0.259291,0 0.463902,-0.0985 0.614539,-0.29464 0.150283,-0.19607 0.225777,-0.46179 0.225777,-0.79703 z m 0.554214,0 c 0,0.23618 -0.03422,0.44951 -0.102658,0.64008 -0.06879,0.19046 -0.164747,0.35415 -0.288572,0.49142 -0.124178,0.13723 -0.271639,0.24306 -0.443089,0.31708 -0.17145,0.0744 -0.35807,0.11147 -0.560211,0.11147 -0.201789,0 -0.388409,-0.0371 -0.559859,-0.11147 -0.17145,-0.074 -0.319264,-0.17985 -0.442736,-0.31708 -0.124177,-0.13727 -0.220486,-0.30096 -0.288925,-0.49142 -0.06844,-0.19057 -0.102658,-0.4039 -0.102658,-0.64008 0,-0.23248 0.03422,-0.44485 0.102658,-0.63736 0.06844,-0.19237 0.164748,-0.35719 0.288925,-0.49432 0.123472,-0.13723 0.271286,-0.24292 0.442736,-0.31721 0.17145,-0.0743 0.35807,-0.11148 0.559859,-0.11148 0.202141,0 0.388761,0.0372 0.560211,0.11148 0.17145,0.0743 0.318911,0.17998 0.443089,0.31721 0.123825,0.13713 0.21978,0.30195 0.288572,0.49432 0.06844,0.19251 0.102658,0.40488 0.102658,0.63736" />
      <path
         id="path124"
         style="fill:#231f20;fill-opacity:1;fill-rule:nonzero;stroke:none;stroke-width:0.0352777"
         d="m 88.150885,166.18384 c 0,-0.34657 -0.08537,-0.61338 -0.257175,-0.8001 -0.171096,-0.18659 -0.399696,-0.28014 -0.685446,-0.28014 -0.160162,0 -0.285046,0.006 -0.374298,0.0174 -0.08961,0.0113 -0.161218,0.0248 -0.214489,0.04 v 1.87427 c 0.06491,0.0536 0.158046,0.10513 0.280106,0.15448 0.121708,0.0497 0.255058,0.0744 0.40005,0.0744 0.1524,0 0.282927,-0.0278 0.391583,-0.0828 0.108302,-0.0554 0.19685,-0.13162 0.265642,-0.22863 0.06844,-0.0974 0.118181,-0.21139 0.148519,-0.34301 0.03069,-0.13144 0.04551,-0.2734 0.04551,-0.4258 z m 0.554567,0 c 0,0.22475 -0.02963,0.43257 -0.08855,0.623 -0.05927,0.19061 -0.145698,0.3543 -0.259998,0.49142 -0.1143,0.13727 -0.254352,0.24377 -0.420158,0.31997 -0.165807,0.0762 -0.355248,0.11437 -0.568677,0.11437 -0.17145,0 -0.322792,-0.023 -0.45438,-0.0685 -0.131233,-0.0459 -0.229304,-0.0896 -0.294216,-0.13158 v 1.18896 h -0.531635 v -3.93788 c 0.125941,-0.0303 0.282927,-0.0637 0.471664,-0.0999 0.188383,-0.0361 0.406752,-0.0543 0.654402,-0.0543 0.2286,0 0.434269,0.0362 0.617008,0.10859 0.183092,0.0724 0.339373,0.17526 0.468842,0.30868 0.129469,0.13324 0.229306,0.29626 0.300215,0.48849 0.0702,0.1924 0.105479,0.40873 0.105479,0.64865" />
      <path
         id="path126"
         style="fill:#231f20;fill-opacity:1;fill-rule:nonzero;stroke:none;stroke-width:0.0352777"
         d="m 91.299781,165.8239 c 0.0039,-0.24021 -0.05609,-0.43727 -0.179917,-0.59161 -0.123825,-0.15434 -0.294216,-0.23149 -0.511529,-0.23149 -0.121708,0 -0.229304,0.024 -0.322792,0.0715 -0.09349,0.0477 -0.172508,0.10957 -0.237066,0.18563 -0.06491,0.0763 -0.115359,0.16387 -0.151694,0.26293 -0.03598,0.0992 -0.05997,0.20009 -0.07126,0.30303 z m -2.040115,0.29146 c 0,-0.26292 0.0381,-0.49251 0.1143,-0.68876 0.0762,-0.19607 0.177094,-0.35909 0.303036,-0.48863 0.125589,-0.1294 0.270229,-0.22656 0.434271,-0.29147 0.163687,-0.0648 0.33161,-0.0971 0.50306,-0.0971 0.40005,0 0.706615,0.12485 0.920044,0.37427 0.213079,0.24973 0.319971,0.62977 0.319971,1.14021 0,0.0229 0,0.0525 0,0.0887 0,0.0361 -0.0021,0.0695 -0.0056,0.0999 h -2.03482 c 0.02294,0.30857 0.112535,0.54282 0.268816,0.70294 0.155927,0.16013 0.40005,0.23993 0.731309,0.23993 0.18697,0 0.343958,-0.0158 0.471662,-0.0484 0.127706,-0.0324 0.224015,-0.0638 0.288573,-0.0945 l 0.07444,0.44594 c -0.06491,0.0342 -0.178152,0.0706 -0.340077,0.10859 -0.161925,0.0382 -0.345723,0.0572 -0.551391,0.0572 -0.259292,0 -0.482952,-0.0391 -0.67169,-0.11712 -0.188735,-0.0779 -0.343958,-0.18592 -0.465667,-0.32315 -0.12206,-0.13684 -0.21237,-0.29986 -0.271637,-0.48852 -0.05891,-0.18839 -0.08855,-0.39508 -0.08855,-0.61998" />
      <path
         id="path128"
         style="fill:#231f20;fill-opacity:1;fill-rule:nonzero;stroke:none;stroke-width:0.0352777"
         d="m 92.854473,164.15508 c -0.09561,0 -0.17639,-0.0315 -0.243065,-0.0943 -0.06668,-0.0628 -0.09983,-0.14756 -0.09983,-0.25438 0,-0.10665 0.03316,-0.19139 0.09983,-0.25425 0.06667,-0.0628 0.14746,-0.0944 0.243065,-0.0944 0.09525,0 0.176035,0.0315 0.24271,0.0944 0.06668,0.0629 0.10019,0.1476 0.10019,0.25425 0,0.10682 -0.03351,0.19155 -0.10019,0.25438 -0.06667,0.0627 -0.14746,0.0943 -0.24271,0.0943 z m -0.748596,4.57758 c -0.04586,0 -0.104775,-0.006 -0.177094,-0.0168 -0.07232,-0.0117 -0.13335,-0.0269 -0.183092,-0.0459 l 0.06844,-0.43438 c 0.0381,0.0113 0.0822,0.0208 0.131585,0.0287 0.04974,0.007 0.09525,0.0113 0.137232,0.0113 0.182737,0 0.313266,-0.0561 0.391229,-0.16866 0.07832,-0.11218 0.117123,-0.27728 0.117123,-0.49431 v -2.92019 h 0.531635 v 2.91454 c 0,0.38104 -0.08678,0.66365 -0.259996,0.84847 -0.173566,0.18493 -0.425804,0.27725 -0.757062,0.27725" />
      <path
         id="path130"
         style="fill:#231f20;fill-opacity:1;fill-rule:nonzero;stroke:none;stroke-width:0.0352777"
         d="m 94.700558,167.21254 c 0.216958,0 0.377825,-0.0285 0.4826,-0.0857 0.104775,-0.0571 0.15734,-0.14842 0.15734,-0.27411 0,-0.12982 -0.05151,-0.23248 -0.154517,-0.30868 -0.102658,-0.0762 -0.272346,-0.16193 -0.508706,-0.25756 -0.1143,-0.0455 -0.223661,-0.0922 -0.328436,-0.13988 -0.104775,-0.0475 -0.195087,-0.10361 -0.271639,-0.16838 -0.07585,-0.0648 -0.136877,-0.14305 -0.18274,-0.23442 -0.04586,-0.0915 -0.06844,-0.2038 -0.06844,-0.33719 0,-0.26278 0.09701,-0.47141 0.291393,-0.62575 0.194382,-0.15434 0.458965,-0.23153 0.794457,-0.23153 0.08361,0 0.167568,0.005 0.251177,0.0143 0.08396,0.01 0.161925,0.0209 0.234243,0.0343 0.07267,0.0134 0.136525,0.0277 0.191559,0.0429 0.05539,0.0153 0.09807,0.0285 0.128764,0.04 l -0.09737,0.45734 c -0.0568,-0.0306 -0.146402,-0.062 -0.268465,-0.0944 -0.12206,-0.0324 -0.268462,-0.0487 -0.439912,-0.0487 -0.148521,0 -0.278342,0.0296 -0.388763,0.0886 -0.110419,0.0589 -0.165804,0.15155 -0.165804,0.27711 0,0.0649 0.0127,0.12209 0.03739,0.17155 0.02469,0.0495 0.06279,0.0943 0.1143,0.13423 0.05115,0.0401 0.115006,0.0771 0.191558,0.11134 0.07585,0.0343 0.167569,0.0707 0.274108,0.10873 0.140759,0.0533 0.2667,0.10583 0.377119,0.15709 0.110421,0.0515 0.204965,0.11151 0.28293,0.17999 0.07796,0.0688 0.137935,0.1513 0.179916,0.24874 0.04198,0.097 0.06279,0.21622 0.06279,0.3569 0,0.2745 -0.101952,0.48232 -0.305507,0.62301 -0.203903,0.14111 -0.494593,0.21167 -0.87136,0.21167 -0.263173,0 -0.468842,-0.0218 -0.61736,-0.0659 -0.148521,-0.0438 -0.249767,-0.0771 -0.303038,-0.0999 l 0.09737,-0.45724 c 0.06068,0.023 0.158046,0.0572 0.291396,0.10308 0.13335,0.0455 0.310443,0.0683 0.531635,0.0683" />
      <path
         id="path132"
         style="fill:#231f20;fill-opacity:1;fill-rule:nonzero;stroke:none;stroke-width:0.0352777"
         d="m 97.603566,166.0295 c 0.1143,0.0878 0.23495,0.19639 0.362657,0.32589 0.127704,0.12983 0.253293,0.26942 0.37747,0.4202 0.123825,0.1506 0.240948,0.30261 0.351367,0.45709 0.110421,0.1542 0.203906,0.29821 0.280106,0.43145 H 98.35216 c -0.08008,-0.13324 -0.172508,-0.26956 -0.277283,-0.40845 -0.104775,-0.13903 -0.214136,-0.27245 -0.328436,-0.40047 -0.114652,-0.12732 -0.230716,-0.24472 -0.348898,-0.3514 -0.117827,-0.10651 -0.230362,-0.19608 -0.336902,-0.26843 v 1.42875 h -0.531635 v -4.34344 l 0.531635,-0.0915 v 2.70895 c 0.09137,-0.0914 0.192265,-0.19223 0.302684,-0.30289 0.110418,-0.11039 0.219075,-0.22296 0.325966,-0.33719 0.10654,-0.11426 0.207786,-0.2238 0.302684,-0.32854 0.09525,-0.10474 0.177093,-0.1972 0.245885,-0.27711 h 0.623006 c -0.08784,0.0952 -0.183091,0.19996 -0.28575,0.31419 -0.10301,0.11437 -0.20955,0.22958 -0.319968,0.34589 -0.110773,0.11617 -0.22225,0.23234 -0.334434,0.34837 -0.112537,0.11631 -0.218016,0.22585 -0.317148,0.32865" />
      <path
         id="path134"
         style="fill:#231f20;fill-opacity:1;fill-rule:nonzero;stroke:none;stroke-width:0.0352777"
         d="m 100.01516,167.66413 h -0.531287 v -2.97173 h 0.531287 z m -0.268469,-3.50905 c -0.09525,0 -0.176389,-0.0315 -0.243064,-0.0943 -0.06667,-0.0628 -0.09984,-0.14756 -0.09984,-0.25438 0,-0.10665 0.03316,-0.19139 0.09984,-0.25425 0.06668,-0.0628 0.147814,-0.0944 0.243064,-0.0944 0.09525,0 0.176036,0.0315 0.242711,0.0944 0.06667,0.0629 0.100188,0.1476 0.100188,0.25425 0,0.10682 -0.0335,0.19155 -0.100188,0.25438 -0.06668,0.0627 -0.147461,0.0943 -0.242711,0.0943" />
      <path
         id="path136"
         style="fill:#231f20;fill-opacity:1;fill-rule:nonzero;stroke:none;stroke-width:0.0352777"
         d="m 102.22672,167.66413 v -3.9605 h 2.38901 v 0.47435 h -1.83444 v 1.19447 h 1.62842 v 0.46852 h -1.62842 v 1.82316 h -0.55457" />
      <path
         id="path138"
         style="fill:#231f20;fill-opacity:1;fill-rule:nonzero;stroke:none;stroke-width:0.0352777"
         d="m 107.45594,167.51529 c -0.12206,0.0307 -0.28292,0.0631 -0.48295,0.0973 -0.20002,0.0343 -0.43145,0.0515 -0.69426,0.0515 -0.2286,0 -0.42122,-0.0331 -0.57715,-0.10019 -0.15628,-0.0663 -0.28222,-0.16079 -0.37747,-0.28289 -0.0953,-0.12171 -0.16369,-0.26571 -0.20567,-0.43148 -0.042,-0.16577 -0.0628,-0.3496 -0.0628,-0.55136 v -1.66878 h 0.53164 v 1.55441 c 0,0.36202 0.0568,0.62096 0.17145,0.77721 0.1143,0.15628 0.30656,0.23428 0.57714,0.23428 0.0572,0 0.11607,-0.002 0.17709,-0.006 0.061,-0.004 0.11819,-0.008 0.17145,-0.0141 0.0533,-0.006 0.10196,-0.0117 0.1457,-0.0174 0.0437,-0.006 0.0751,-0.0122 0.0942,-0.0201 v -2.50871 h 0.53164 v 2.88586" />
      <path
         id="path140"
         style="fill:#231f20;fill-opacity:1;fill-rule:nonzero;stroke:none;stroke-width:0.0352777"
         d="m 108.34177,164.77798 c 0.12206,-0.0303 0.28399,-0.0629 0.48577,-0.0972 0.20179,-0.0343 0.43427,-0.0514 0.69709,-0.0514 0.23636,0 0.43251,0.0335 0.58879,0.0999 0.15628,0.0668 0.28081,0.16013 0.3743,0.28015 0.0935,0.12001 0.1591,0.26391 0.1972,0.43148 0.0381,0.16757 0.0571,0.35249 0.0571,0.55435 v 1.66882 h -0.53164 v -1.55441 c 0,-0.18302 -0.0124,-0.3393 -0.037,-0.46884 -0.0247,-0.12951 -0.0656,-0.23425 -0.12276,-0.31433 -0.0571,-0.0799 -0.13335,-0.13793 -0.2286,-0.17431 -0.0952,-0.0361 -0.21343,-0.0543 -0.35454,-0.0543 -0.0571,0 -0.11607,0.002 -0.1771,0.006 -0.061,0.004 -0.11889,0.009 -0.17427,0.0143 -0.055,0.006 -0.10478,0.0124 -0.14852,0.0202 -0.0438,0.008 -0.0751,0.0132 -0.0942,0.017 v 2.509 h -0.53164 v -2.88615" />
      <path
         id="path142"
         style="fill:#231f20;fill-opacity:1;fill-rule:nonzero;stroke:none;stroke-width:0.0352777"
         d="m 113.51384,165.25229 c -0.0649,-0.0532 -0.15839,-0.10474 -0.2801,-0.15434 -0.12206,-0.0494 -0.25541,-0.0742 -0.40005,-0.0742 -0.1524,0 -0.28293,0.0277 -0.39158,0.0828 -0.10866,0.0552 -0.19721,0.13148 -0.26565,0.2286 -0.0688,0.0971 -0.11818,0.21238 -0.14852,0.34562 -0.0307,0.13353 -0.0459,0.2763 -0.0459,0.42887 0,0.34657 0.0857,0.61433 0.25718,0.80268 0.17145,0.18866 0.40005,0.28293 0.6858,0.28293 0.14464,0 0.26564,-0.006 0.36265,-0.0197 0.0974,-0.0135 0.17251,-0.028 0.22613,-0.0431 z m 0,-2.00021 0.53129,-0.0914 v 4.34894 c -0.12206,0.0342 -0.27799,0.0688 -0.46849,0.10294 -0.1905,0.0343 -0.40958,0.0515 -0.65758,0.0515 -0.22825,0 -0.43392,-0.0362 -0.61701,-0.10859 -0.18274,-0.0724 -0.33902,-0.17501 -0.46849,-0.30868 -0.12982,-0.13338 -0.22965,-0.29601 -0.30021,-0.48866 -0.0706,-0.19223 -0.10548,-0.40845 -0.10548,-0.64848 0,-0.22864 0.0293,-0.43822 0.0885,-0.62883 0.0589,-0.19057 0.1457,-0.35429 0.26,-0.49138 0.11394,-0.13713 0.25435,-0.24381 0.4198,-0.32015 0.16581,-0.0761 0.3556,-0.11437 0.56903,-0.11437 0.1711,0 0.32244,0.023 0.45403,0.0688 0.13158,0.0456 0.22966,0.0895 0.29457,0.13148 v -1.50315" />
      <path
         id="path144"
         style="fill:#231f20;fill-opacity:1;fill-rule:nonzero;stroke:none;stroke-width:0.0352777"
         d="m 117.29703,167.51529 c -0.12206,0.0307 -0.28293,0.0631 -0.48295,0.0973 -0.20003,0.0343 -0.43145,0.0515 -0.69427,0.0515 -0.2286,0 -0.42121,-0.0331 -0.57714,-0.10019 -0.15628,-0.0663 -0.28222,-0.16079 -0.37747,-0.28289 -0.0952,-0.12171 -0.16369,-0.26571 -0.20567,-0.43148 -0.042,-0.16577 -0.0628,-0.3496 -0.0628,-0.55136 v -1.66878 h 0.53163 v 1.55441 c 0,0.36202 0.0568,0.62096 0.17145,0.77721 0.1143,0.15628 0.30657,0.23428 0.57715,0.23428 0.0572,0 0.11606,-0.002 0.17709,-0.006 0.061,-0.004 0.11818,-0.008 0.17145,-0.0141 0.0533,-0.006 0.10195,-0.0117 0.1457,-0.0174 0.0438,-0.006 0.0751,-0.0122 0.0942,-0.0201 v -2.50871 h 0.53164 v 2.88586" />
      <path
         id="path146"
         style="fill:#231f20;fill-opacity:1;fill-rule:nonzero;stroke:none;stroke-width:0.0352777"
         d="m 118.8743,167.21254 c 0.21696,0 0.37818,-0.0285 0.48295,-0.0857 0.10443,-0.0571 0.15699,-0.14842 0.15699,-0.27411 0,-0.12982 -0.0515,-0.23248 -0.15416,-0.30868 -0.10301,-0.0762 -0.2727,-0.16193 -0.50871,-0.25756 -0.1143,-0.0455 -0.22401,-0.0922 -0.32879,-0.13988 -0.10477,-0.0475 -0.19508,-0.10361 -0.27128,-0.16838 -0.0762,-0.0648 -0.13723,-0.14305 -0.18274,-0.23442 -0.0459,-0.0915 -0.0688,-0.2038 -0.0688,-0.33719 0,-0.26278 0.0974,-0.47141 0.29139,-0.62575 0.19438,-0.15434 0.45932,-0.23153 0.79446,-0.23153 0.084,0 0.16757,0.005 0.25153,0.0143 0.0836,0.01 0.16192,0.0209 0.23424,0.0343 0.0723,0.0134 0.13617,0.0277 0.19156,0.0429 0.055,0.0153 0.0981,0.0285 0.12841,0.04 l -0.097,0.45734 c -0.0571,-0.0306 -0.14675,-0.062 -0.26846,-0.0944 -0.12206,-0.0324 -0.26882,-0.0487 -0.44027,-0.0487 -0.14852,0 -0.27834,0.0296 -0.38876,0.0886 -0.11042,0.0589 -0.16545,0.15155 -0.16545,0.27711 0,0.0649 0.0124,0.12209 0.037,0.17155 0.0247,0.0495 0.0628,0.0943 0.1143,0.13423 0.0515,0.0401 0.11536,0.0771 0.19156,0.11134 0.0762,0.0343 0.16757,0.0707 0.27411,0.10873 0.14111,0.0533 0.2667,0.10583 0.37747,0.15709 0.11042,0.0515 0.20461,0.11151 0.28257,0.17999 0.078,0.0688 0.13829,0.1513 0.18027,0.24874 0.0416,0.097 0.0628,0.21622 0.0628,0.3569 0,0.2745 -0.10195,0.48232 -0.30585,0.62301 -0.20356,0.14111 -0.49425,0.21167 -0.87136,0.21167 -0.26282,0 -0.46885,-0.0218 -0.61737,-0.0659 -0.14852,-0.0438 -0.24941,-0.0771 -0.30268,-0.0999 l 0.097,-0.45724 c 0.061,0.023 0.15805,0.0572 0.2914,0.10308 0.13335,0.0455 0.31044,0.0683 0.53163,0.0683" />
      <path
         id="path148"
         style="fill:#231f20;fill-opacity:1;fill-rule:nonzero;stroke:none;stroke-width:0.0352777"
         d="m 122.67478,165.09231 c -0.0801,0.0876 -0.18592,0.21152 -0.31715,0.37151 -0.13159,0.16013 -0.2727,0.33722 -0.42298,0.53149 -0.15064,0.19431 -0.30092,0.39815 -0.45156,0.61158 -0.15028,0.21347 -0.28257,0.41702 -0.39722,0.61129 h 1.63477 v 0.44595 h -2.26907 v -0.35458 c 0.0914,-0.16757 0.20391,-0.35235 0.33726,-0.55411 0.13335,-0.20185 0.2734,-0.40294 0.42016,-0.60289 0.14675,-0.2002 0.28927,-0.38887 0.42862,-0.56582 0.13899,-0.17734 0.26,-0.32657 0.36301,-0.44856 h -1.46897 v -0.44577 h 2.14313 v 0.39991" />
      <path
         id="path150"
         style="fill:#231f20;fill-opacity:1;fill-rule:nonzero;stroke:none;stroke-width:0.0352777"
         d="m 65.851168,171.15208 c -0.23622,0 -0.4173,0.006 -0.542819,0.017 v 1.49186 h 0.394265 c 0.19057,0 0.361985,-0.01 0.51442,-0.0285 0.152259,-0.0192 0.280988,-0.0554 0.385692,-0.10873 0.10474,-0.0532 0.185632,-0.12869 0.242817,-0.2257 0.05718,-0.097 0.08587,-0.22589 0.08587,-0.38601 0,-0.14856 -0.02868,-0.27231 -0.08587,-0.37109 -0.05719,-0.0991 -0.134232,-0.17752 -0.231387,-0.23428 -0.09712,-0.0575 -0.211525,-0.0973 -0.342829,-0.1203 -0.13148,-0.0229 -0.271498,-0.0342 -0.420159,-0.0342 z m 0.840035,1.85734 c 0.06107,0.0762 0.138218,0.17639 0.231528,0.29986 0.09342,0.12386 0.189477,0.26113 0.288678,0.41173 0.09909,0.15021 0.197062,0.30758 0.294217,0.47131 0.09715,0.16397 0.179987,0.32205 0.248743,0.47445 h -0.60579 c -0.07634,-0.14457 -0.159173,-0.29133 -0.248743,-0.44027 -0.08943,-0.14841 -0.179952,-0.29037 -0.271322,-0.42541 -0.09137,-0.13547 -0.182033,-0.26212 -0.271497,-0.38033 -0.08957,-0.11783 -0.17071,-0.22077 -0.242782,-0.3083 -0.04964,0.004 -0.100189,0.006 -0.151589,0.006 -0.0514,0 -0.103928,0 -0.157092,0 h -0.497205 v 1.54863 h -0.554531 v -3.90344 c 0.15628,-0.0382 0.330588,-0.0635 0.522958,-0.0769 0.192511,-0.0135 0.368652,-0.0201 0.528778,-0.0201 0.556154,0 0.980052,0.10471 1.271517,0.31433 0.29143,0.20944 0.437233,0.52214 0.437233,0.93733 0,0.26278 -0.0696,0.48754 -0.208633,0.67412 -0.139171,0.18701 -0.343817,0.32593 -0.614468,0.4173" />
      <path
         id="path152"
         style="fill:#231f20;fill-opacity:1;fill-rule:nonzero;stroke:none;stroke-width:0.0352777"
         d="m 70.354588,173.11246 c 0,-0.33552 -0.07525,-0.60109 -0.225742,-0.79759 -0.15046,-0.19622 -0.355247,-0.29422 -0.614327,-0.29422 -0.259045,0 -0.463833,0.098 -0.614327,0.29422 -0.15046,0.1965 -0.225708,0.46207 -0.225708,0.79759 0,0.33514 0.07525,0.60086 0.225708,0.79693 0.150494,0.19611 0.355282,0.2945 0.614327,0.2945 0.25908,0 0.463867,-0.0984 0.614327,-0.2945 0.150495,-0.19607 0.225742,-0.46179 0.225742,-0.79693 z m 0.554531,0 c 0,0.23594 -0.03432,0.44941 -0.10294,0.63998 -0.06865,0.19046 -0.164818,0.35415 -0.288572,0.49142 -0.123896,0.13723 -0.271604,0.24306 -0.442913,0.31708 -0.171555,0.0744 -0.358281,0.11147 -0.560175,0.11147 -0.20186,0 -0.388585,-0.0371 -0.560035,-0.11147 -0.171415,-0.074 -0.319158,-0.17985 -0.442877,-0.31708 -0.123755,-0.13727 -0.220098,-0.30096 -0.288714,-0.49142 -0.06847,-0.19057 -0.102799,-0.40404 -0.102799,-0.63998 0,-0.23244 0.03433,-0.44481 0.102799,-0.63746 0.06861,-0.19223 0.164959,-0.35705 0.288714,-0.49432 0.123719,-0.13709 0.271462,-0.24292 0.442877,-0.31707 0.17145,-0.0744 0.358175,-0.11148 0.560035,-0.11148 0.201894,0 0.38862,0.0371 0.560175,0.11148 0.171309,0.0742 0.319017,0.17998 0.442913,0.31707 0.123754,0.13727 0.219921,0.30209 0.288572,0.49432 0.06862,0.19265 0.10294,0.40502 0.10294,0.63746" />
      <path
         id="path154"
         style="fill:#231f20;fill-opacity:1;fill-rule:nonzero;stroke:none;stroke-width:0.0352777"
         d="m 73.486302,172.09509 c -0.0799,0.0875 -0.185596,0.21124 -0.317077,0.37137 -0.13148,0.16027 -0.272591,0.33732 -0.42291,0.53135 -0.150495,0.19431 -0.301095,0.39829 -0.451449,0.61172 -0.150636,0.21346 -0.282928,0.41702 -0.397298,0.61129 h 1.634631 v 0.44595 h -2.268926 v -0.35458 c 0.09133,-0.16757 0.2038,-0.35235 0.337185,-0.55411 0.133385,-0.20186 0.273403,-0.40294 0.420017,-0.60289 0.146791,-0.20006 0.28956,-0.38887 0.428731,-0.56597 0.13903,-0.17705 0.259892,-0.32656 0.362973,-0.44827 h -1.468861 v -0.44591 h 2.142984 v 0.40005" />
      <path
         id="path156"
         style="fill:#231f20;fill-opacity:1;fill-rule:nonzero;stroke:none;stroke-width:0.0352777"
         d="m 76.606939,174.66677 c -0.106892,-0.27436 -0.220133,-0.58773 -0.340078,-0.94008 -0.119944,-0.35253 -0.229658,-0.71893 -0.328788,-1.09996 -0.09913,0.38103 -0.207787,0.74743 -0.325614,1.09996 -0.118181,0.35235 -0.230717,0.66572 -0.337256,0.94008 h -0.462844 c -0.175331,-0.39233 -0.346781,-0.84032 -0.514386,-1.34303 -0.16771,-0.50299 -0.325755,-1.04595 -0.474309,-1.6287 h 0.571359 c 0.0381,0.17914 0.08396,0.37359 0.13723,0.58275 0.05327,0.20962 0.109714,0.41907 0.168628,0.62869 0.05891,0.20944 0.121003,0.41162 0.185561,0.60565 0.06491,0.19441 0.125942,0.36406 0.183092,0.50874 0.06491,-0.17886 0.128411,-0.36862 0.191558,-0.56829 0.06279,-0.2001 0.122767,-0.40224 0.179917,-0.60607 0.05715,-0.20366 0.111477,-0.40362 0.162983,-0.60011 0.05151,-0.19611 0.09596,-0.37995 0.134408,-0.55136 h 0.439914 c 0.03422,0.17141 0.0762,0.35525 0.125589,0.55136 0.04939,0.19649 0.102658,0.39645 0.160161,0.60011 0.05715,0.20383 0.117122,0.40597 0.179917,0.60607 0.06279,0.19967 0.126647,0.38943 0.191558,0.56829 0.05715,-0.14468 0.117122,-0.31433 0.179917,-0.50874 0.06279,-0.19403 0.124883,-0.39621 0.185914,-0.60565 0.06068,-0.20962 0.117827,-0.41907 0.171097,-0.62869 0.05362,-0.20916 0.09913,-0.40361 0.137583,-0.58275 h 0.54857 c -0.148873,0.58275 -0.306917,1.12571 -0.474486,1.6287 -0.16757,0.50271 -0.339373,0.9507 -0.51435,1.34303 h -0.462845" />
      <path
         id="path158"
         style="fill:#231f20;fill-opacity:1;fill-rule:nonzero;stroke:none;stroke-width:0.0352777"
         d="m 80.590153,173.11246 c 0,-0.33552 -0.07514,-0.60109 -0.225778,-0.79759 -0.150636,-0.19622 -0.355247,-0.29422 -0.614186,-0.29422 -0.259292,0 -0.463903,0.098 -0.614539,0.29422 -0.150283,0.1965 -0.225778,0.46207 -0.225778,0.79759 0,0.33514 0.0755,0.60086 0.225778,0.79693 0.150636,0.19611 0.355247,0.2945 0.614539,0.2945 0.258939,0 0.46355,-0.0984 0.614186,-0.2945 0.150636,-0.19607 0.225778,-0.46179 0.225778,-0.79693 z m 0.554567,0 c 0,0.23594 -0.03457,0.44941 -0.103012,0.63998 -0.06879,0.19046 -0.164747,0.35415 -0.288572,0.49142 -0.123825,0.13723 -0.271639,0.24306 -0.443089,0.31708 -0.17145,0.0744 -0.358069,0.11147 -0.559858,0.11147 -0.202142,0 -0.388761,-0.0371 -0.560211,-0.11147 -0.17145,-0.074 -0.319264,-0.17985 -0.442736,-0.31708 -0.123825,-0.13727 -0.220133,-0.30096 -0.288925,-0.49142 -0.06844,-0.19057 -0.102658,-0.40404 -0.102658,-0.63998 0,-0.23244 0.03422,-0.44481 0.102658,-0.63746 0.06879,-0.19223 0.1651,-0.35705 0.288925,-0.49432 0.123472,-0.13709 0.271286,-0.24292 0.442736,-0.31707 0.17145,-0.0744 0.358069,-0.11148 0.560211,-0.11148 0.201789,0 0.388408,0.0371 0.559858,0.11148 0.17145,0.0742 0.319264,0.17998 0.443089,0.31707 0.123825,0.13727 0.219781,0.30209 0.288572,0.49432 0.06844,0.19265 0.103012,0.40502 0.103012,0.63746" />
      <path
         id="path160"
         style="fill:#231f20;fill-opacity:1;fill-rule:nonzero;stroke:none;stroke-width:0.0352777"
         d="m 82.127558,171.15772 c -0.09525,0 -0.176388,-0.0314 -0.243063,-0.0943 -0.06668,-0.0627 -0.09984,-0.1477 -0.09984,-0.25424 0,-0.10665 0.03316,-0.19153 0.09984,-0.25439 0.06668,-0.0628 0.147813,-0.0945 0.243063,-0.0945 0.09525,0 0.176037,0.0317 0.242712,0.0945 0.06668,0.0629 0.100188,0.14774 0.100188,0.25439 0,0.10654 -0.03351,0.19156 -0.100188,0.25424 -0.06668,0.0629 -0.147462,0.0943 -0.242712,0.0943 z m -0.748594,4.57758 c -0.04586,0 -0.104775,-0.006 -0.177094,-0.0168 -0.07232,-0.0117 -0.13335,-0.0269 -0.183092,-0.0459 l 0.06879,-0.43438 c 0.03775,0.0113 0.08184,0.0208 0.131233,0.0287 0.04974,0.008 0.09525,0.0113 0.13723,0.0113 0.182739,0 0.313267,-0.0561 0.391584,-0.16866 0.07796,-0.11218 0.117122,-0.277 0.117122,-0.49431 v -2.92019 h 0.531636 v 2.91468 c 0,0.3809 -0.08714,0.66379 -0.26035,0.84833 -0.173567,0.18492 -0.425803,0.27725 -0.757061,0.27725" />
      <path
         id="path162"
         style="fill:#231f20;fill-opacity:1;fill-rule:nonzero;stroke:none;stroke-width:0.0352777"
         d="m 85.647928,174.51793 c -0.122061,0.0307 -0.282928,0.0631 -0.482953,0.0973 -0.200025,0.0343 -0.4318,0.0515 -0.694619,0.0515 -0.228248,0 -0.420864,-0.0331 -0.577145,-0.10019 -0.15628,-0.0663 -0.281869,-0.16079 -0.377119,-0.28289 -0.09525,-0.12171 -0.163689,-0.26571 -0.20567,-0.43148 -0.04198,-0.16535 -0.06279,-0.34961 -0.06279,-0.55136 v -1.66864 h 0.531283 v 1.55427 c 0,0.36202 0.05715,0.62096 0.17145,0.77721 0.1143,0.15628 0.306564,0.23427 0.577497,0.23427 0.05715,0 0.116064,-0.002 0.177095,-0.006 0.06068,-0.004 0.117828,-0.008 0.17145,-0.0141 0.05327,-0.006 0.1016,-0.0117 0.145697,-0.0174 0.04374,-0.006 0.07514,-0.0122 0.09419,-0.0197 v -2.50899 h 0.531636 v 2.88573" />
      <path
         id="path164"
         style="fill:#231f20;fill-opacity:1;fill-rule:nonzero;stroke:none;stroke-width:0.0352777"
         d="m 88.956631,171.15208 c -0.236008,0 -0.416983,0.006 -0.542573,0.017 v 1.49186 h 0.394052 c 0.1905,0 0.36195,-0.01 0.51435,-0.0285 0.1524,-0.0192 0.281165,-0.0554 0.38594,-0.10873 0.104423,-0.0532 0.18556,-0.12869 0.24271,-0.2257 0.05715,-0.097 0.08573,-0.22589 0.08573,-0.38601 0,-0.14856 -0.02858,-0.27231 -0.08573,-0.37109 -0.05715,-0.0991 -0.134054,-0.17752 -0.231421,-0.23428 -0.09701,-0.0575 -0.211314,-0.0973 -0.3429,-0.1203 -0.131233,-0.0229 -0.271287,-0.0342 -0.420158,-0.0342 z m 0.840317,1.85734 c 0.06068,0.0762 0.137935,0.17639 0.23142,0.29986 0.09313,0.12386 0.189442,0.26113 0.288573,0.41173 0.09913,0.15021 0.197202,0.30758 0.294217,0.47131 0.09737,0.16397 0.179917,0.32205 0.248708,0.47445 h -0.605718 c -0.0762,-0.14457 -0.159105,-0.29133 -0.248709,-0.44027 -0.08925,-0.14841 -0.179916,-0.29037 -0.271287,-0.42541 -0.09137,-0.13547 -0.182034,-0.26212 -0.271638,-0.38033 -0.08961,-0.11783 -0.170746,-0.22077 -0.242712,-0.3083 -0.04974,0.004 -0.100188,0.006 -0.151694,0.006 -0.05115,0 -0.103717,0 -0.156985,0 h -0.497065 v 1.54863 h -0.554567 v -3.90344 c 0.156282,-0.0382 0.330552,-0.0635 0.522817,-0.0769 0.192617,-0.0135 0.368652,-0.0201 0.528815,-0.0201 0.556329,0 0.980016,0.10471 1.27141,0.31433 0.291748,0.20944 0.437444,0.52214 0.437444,0.93733 0,0.26278 -0.06985,0.48754 -0.208844,0.67412 -0.138994,0.18701 -0.343606,0.32593 -0.614185,0.4173" />
      <path
         id="path166"
         style="fill:#231f20;fill-opacity:1;fill-rule:nonzero;stroke:none;stroke-width:0.0352777"
         d="m 93.26581,172.82668 c 0.0035,-0.24021 -0.05644,-0.43741 -0.180269,-0.59161 -0.123825,-0.15448 -0.294216,-0.23177 -0.511175,-0.23177 -0.12206,0 -0.229658,0.024 -0.323143,0.0717 -0.09349,0.0476 -0.172509,0.10971 -0.237067,0.18591 -0.06491,0.0762 -0.115358,0.16369 -0.151696,0.26278 -0.03598,0.0992 -0.05962,0.2001 -0.07126,0.30304 z m -2.040467,0.29146 c 0,-0.26281 0.0381,-0.49251 0.114655,-0.68862 0.07585,-0.19649 0.176741,-0.35913 0.302683,-0.48891 0.125587,-0.12912 0.270579,-0.22656 0.434269,-0.29147 0.163689,-0.0646 0.33161,-0.097 0.50306,-0.097 0.40005,0 0.706615,0.12485 0.920046,0.37426 0.213429,0.24945 0.319969,0.62978 0.319969,1.14022 0,0.0229 0,0.0525 0,0.0886 0,0.0363 -0.0021,0.0695 -0.0056,0.0998 h -2.034471 c 0.02294,0.30868 0.112183,0.54292 0.268465,0.70305 0.156281,0.16012 0.40005,0.23992 0.73166,0.23992 0.186621,0 0.343606,-0.0158 0.471665,-0.0484 0.127352,-0.0324 0.22366,-0.0638 0.288218,-0.0941 l 0.07444,0.44552 c -0.06491,0.0342 -0.178154,0.0706 -0.340079,0.10873 -0.161925,0.038 -0.345721,0.057 -0.551392,0.057 -0.259292,0 -0.482952,-0.0391 -0.671687,-0.11712 -0.188738,-0.0779 -0.343607,-0.18549 -0.465667,-0.32315 -0.122063,-0.13684 -0.212373,-0.29986 -0.27164,-0.48852 -0.05891,-0.18839 -0.08855,-0.39508 -0.08855,-0.61983" />
      <path
         id="path168"
         style="fill:#231f20;fill-opacity:1;fill-rule:nonzero;stroke:none;stroke-width:0.0352777"
         d="m 96.414706,172.16342 c -0.05362,-0.0152 -0.124883,-0.0292 -0.21449,-0.0426 -0.08925,-0.0135 -0.210608,-0.0201 -0.362656,-0.0201 -0.28575,0 -0.505883,0.0934 -0.660046,0.28 -0.154516,0.18673 -0.231775,0.43438 -0.231775,0.74306 0,0.17141 0.02188,0.31817 0.06597,0.43988 0.04374,0.12206 0.102658,0.22295 0.177094,0.303 0.07444,0.0801 0.159808,0.13906 0.257175,0.17709 0.09701,0.0382 0.197204,0.0572 0.299862,0.0572 0.141111,0 0.270579,-0.0201 0.388761,-0.0599 0.118181,-0.04 0.211314,-0.0868 0.280106,-0.14016 z m 0.0056,2.20638 c -0.04551,0.0303 -0.134409,0.0695 -0.265994,0.11712 -0.131233,0.0476 -0.284691,0.0713 -0.459671,0.0713 -0.17921,0 -0.347837,-0.0287 -0.505883,-0.0857 -0.158044,-0.0572 -0.296334,-0.1458 -0.414512,-0.26567 -0.11783,-0.1203 -0.211315,-0.26956 -0.279755,-0.4487 -0.06879,-0.17928 -0.10301,-0.39233 -0.10301,-0.63994 0,-0.21735 0.03246,-0.41631 0.09701,-0.59725 0.06491,-0.18109 0.159101,-0.33737 0.282926,-0.46881 0.123825,-0.13134 0.275167,-0.23428 0.454377,-0.3084 0.178859,-0.0744 0.381,-0.11148 0.606073,-0.11148 0.247299,0 0.46355,0.018 0.648407,0.0543 0.184854,0.036 0.340077,0.0696 0.465667,0.0999 v 2.65176 c 0,0.45724 -0.11783,0.7885 -0.35419,0.99452 -0.23636,0.2056 -0.594432,0.30826 -1.07456,0.30826 -0.186622,0 -0.362657,-0.0151 -0.528463,-0.0455 -0.165804,-0.0307 -0.309737,-0.0667 -0.431446,-0.10859 l 0.09701,-0.46288 c 0.10654,0.0416 0.237422,0.0789 0.391584,0.11148 0.154516,0.0321 0.315383,0.0484 0.482954,0.0484 0.316087,0 0.543629,-0.0628 0.682977,-0.18838 0.138994,-0.12595 0.208492,-0.32604 0.208492,-0.60011 v -0.12556" />
      <path
         id="path170"
         style="fill:#231f20;fill-opacity:1;fill-rule:nonzero;stroke:none;stroke-width:0.0352777"
         d="m 98.36345,174.66677 h -0.531636 v -2.97173 h 0.531636 z m -0.268817,-3.50905 c -0.0949,0 -0.176035,-0.0314 -0.24271,-0.0943 -0.06667,-0.0627 -0.09984,-0.1477 -0.09984,-0.25424 0,-0.10665 0.03316,-0.19153 0.09984,-0.25439 0.06668,-0.0628 0.147812,-0.0945 0.24271,-0.0945 0.0956,0 0.17639,0.0317 0.243065,0.0945 0.06667,0.0629 0.100187,0.14774 0.100187,0.25439 0,0.10654 -0.03351,0.19156 -0.100187,0.25424 -0.06668,0.0629 -0.147463,0.0943 -0.243065,0.0943" />
      <path
         id="path172"
         style="fill:#231f20;fill-opacity:1;fill-rule:nonzero;stroke:none;stroke-width:0.0352777"
         d="m 101.31796,173.11246 c 0,-0.33552 -0.0751,-0.60109 -0.22542,-0.79759 -0.15064,-0.19622 -0.3556,-0.29422 -0.61454,-0.29422 -0.25894,0 -0.4639,0.098 -0.614185,0.29422 -0.150638,0.1965 -0.22578,0.46207 -0.22578,0.79759 0,0.33514 0.07514,0.60086 0.22578,0.79693 0.150285,0.19611 0.355245,0.2945 0.614185,0.2945 0.25894,0 0.4639,-0.0984 0.61454,-0.2945 0.15028,-0.19607 0.22542,-0.46179 0.22542,-0.79693 z m 0.55457,0 c 0,0.23594 -0.0342,0.44941 -0.10266,0.63998 -0.0688,0.19046 -0.1651,0.35415 -0.28892,0.49142 -0.12383,0.13723 -0.27129,0.24306 -0.44274,0.31708 -0.17145,0.0744 -0.35842,0.11147 -0.56021,0.11147 -0.20179,0 -0.38876,-0.0371 -0.560211,-0.11147 -0.171098,-0.074 -0.318912,-0.17985 -0.442737,-0.31708 -0.123825,-0.13727 -0.220134,-0.30096 -0.288571,-0.49142 -0.06879,-0.19057 -0.103013,-0.40404 -0.103013,-0.63998 0,-0.23244 0.03422,-0.44481 0.103013,-0.63746 0.06844,-0.19223 0.164746,-0.35705 0.288571,-0.49432 0.123825,-0.13709 0.271639,-0.24292 0.442737,-0.31707 0.171451,-0.0744 0.358421,-0.11148 0.560211,-0.11148 0.20179,0 0.38876,0.0371 0.56021,0.11148 0.17145,0.0742 0.31891,0.17998 0.44274,0.31707 0.12382,0.13727 0.22013,0.30209 0.28892,0.49432 0.0684,0.19265 0.10266,0.40502 0.10266,0.63746" />
      <path
         id="path174"
         style="fill:#231f20;fill-opacity:1;fill-rule:nonzero;stroke:none;stroke-width:0.0352777"
         d="m 102.59255,171.78073 c 0.12171,-0.0303 0.28363,-0.0628 0.48578,-0.0974 0.20178,-0.0342 0.43426,-0.0511 0.69708,-0.0511 0.23601,0 0.43251,0.0332 0.58879,0.0999 0.15593,0.0665 0.28081,0.16012 0.3743,0.28 0.0931,0.12001 0.1591,0.26391 0.1972,0.43148 0.0381,0.16757 0.0572,0.3525 0.0572,0.55421 v 1.66896 h -0.53163 v -1.5543 c 0,-0.18313 -0.0124,-0.33941 -0.037,-0.46881 -0.0247,-0.1295 -0.066,-0.23424 -0.12313,-0.31432 -0.0568,-0.08 -0.13335,-0.13794 -0.2286,-0.17431 -0.0953,-0.0364 -0.21342,-0.0543 -0.35418,-0.0543 -0.0572,0 -0.11642,0.002 -0.1771,0.006 -0.061,0.004 -0.11924,0.009 -0.17427,0.0145 -0.0554,0.006 -0.10513,0.0123 -0.14852,0.0201 -0.0441,0.007 -0.0755,0.013 -0.0945,0.0168 v 2.50899 h -0.53128 v -2.88604" />
      <path
         id="path176"
         style="fill:#231f20;fill-opacity:1;fill-rule:nonzero;stroke:none;stroke-width:0.0352777"
         d="m 106.84987,174.2265 c 0.12594,0 0.23742,-0.003 0.33444,-0.008 0.0974,-0.006 0.17815,-0.0158 0.24306,-0.0314 v -0.88582 c -0.0381,-0.019 -0.10019,-0.0353 -0.18591,-0.0484 -0.0857,-0.0138 -0.18945,-0.0201 -0.31115,-0.0201 -0.0804,0 -0.1651,0.006 -0.25436,0.0169 -0.0896,0.0117 -0.1718,0.0353 -0.24588,0.0717 -0.0741,0.0359 -0.13618,0.0857 -0.18556,0.14855 -0.0497,0.0627 -0.0744,0.14563 -0.0744,0.24857 0,0.1906 0.0607,0.3229 0.18274,0.39687 0.12206,0.0746 0.28786,0.11152 0.49706,0.11152 z m -0.0455,-2.66308 c 0.21343,0 0.39335,0.0278 0.54011,0.0828 0.14675,0.0554 0.26458,0.13338 0.35419,0.23428 0.0896,0.10128 0.15345,0.22115 0.19155,0.36022 0.0381,0.13903 0.0572,0.29242 0.0572,0.45999 v 1.85744 c -0.0459,0.008 -0.10971,0.0179 -0.19155,0.0314 -0.0819,0.0133 -0.17428,0.0256 -0.27694,0.0373 -0.10301,0.0113 -0.21449,0.0219 -0.33443,0.031 -0.11994,0.01 -0.23918,0.0145 -0.35701,0.0145 -0.16792,0 -0.32209,-0.0169 -0.4632,-0.0515 -0.14076,-0.0341 -0.26282,-0.0885 -0.36547,-0.16259 -0.10302,-0.0744 -0.1831,-0.17255 -0.24025,-0.2945 -0.0571,-0.12182 -0.0857,-0.26857 -0.0857,-0.43999 0,-0.16372 0.0332,-0.30469 0.0998,-0.42294 0.0667,-0.11822 0.15734,-0.21343 0.27164,-0.28579 0.1143,-0.0724 0.24765,-0.12555 0.40005,-0.15974 0.1524,-0.0346 0.31221,-0.0515 0.48013,-0.0515 0.0533,0 0.10866,0.003 0.16581,0.008 0.0568,0.006 0.11148,0.0135 0.16263,0.023 0.0515,0.01 0.0963,0.0179 0.13441,0.0258 0.0381,0.007 0.0649,0.0133 0.0801,0.0168 v -0.14841 c 0,-0.0875 -0.01,-0.17431 -0.0286,-0.26003 -0.019,-0.0857 -0.0533,-0.16193 -0.10301,-0.2286 -0.0494,-0.0667 -0.11713,-0.11991 -0.20285,-0.16016 -0.0857,-0.0398 -0.1972,-0.0599 -0.33408,-0.0599 -0.17533,0 -0.32879,0.0123 -0.46037,0.0369 -0.13124,0.0251 -0.22966,0.0509 -0.29422,0.0773 l -0.0628,-0.43988 c 0.0684,-0.0303 0.18274,-0.0599 0.3429,-0.0886 0.15981,-0.0285 0.33337,-0.043 0.51999,-0.043" />
      <path
         id="path178"
         style="fill:#231f20;fill-opacity:1;fill-rule:nonzero;stroke:none;stroke-width:0.0352777"
         d="m 109.69044,174.66677 c -0.32808,-0.008 -0.56021,-0.078 -0.69744,-0.21167 -0.13723,-0.13324 -0.20567,-0.34078 -0.20567,-0.62258 v -3.56623 l 0.53163,-0.0914 v 3.57187 c 0,0.0875 0.007,0.15971 0.0226,0.21689 0.0152,0.0572 0.0402,0.10308 0.0744,0.13727 0.0342,0.0342 0.0801,0.0599 0.13724,0.0773 0.0571,0.0168 0.12735,0.0313 0.21131,0.0426 l -0.0741,0.44594" />
      <path
         id="path180"
         style="fill:#231f20;fill-opacity:1;fill-rule:nonzero;stroke:none;stroke-width:0.0352777"
         d="m 110.33038,171.78073 c 0.12206,-0.0303 0.28398,-0.0628 0.48577,-0.0974 0.20179,-0.0342 0.43463,-0.0511 0.69744,-0.0511 0.23601,0 0.43216,0.0332 0.58844,0.0999 0.15628,0.0665 0.28081,0.16012 0.3743,0.28 0.0935,0.12001 0.1591,0.26391 0.1972,0.43148 0.0381,0.16757 0.0572,0.3525 0.0572,0.55421 v 1.66896 h -0.53164 v -1.5543 c 0,-0.18313 -0.0124,-0.33941 -0.0367,-0.46881 -0.0251,-0.1295 -0.066,-0.23424 -0.12312,-0.31432 -0.0572,-0.08 -0.13335,-0.13794 -0.2286,-0.17431 -0.0953,-0.0364 -0.21343,-0.0543 -0.35454,-0.0543 -0.0572,0 -0.11606,0.002 -0.17674,0.006 -0.061,0.004 -0.11924,0.009 -0.17463,0.0145 -0.055,0.006 -0.10477,0.0123 -0.14851,0.0201 -0.0438,0.007 -0.0751,0.013 -0.0942,0.0168 v 2.50899 h -0.53164 v -2.88604" />
      <path
         id="path182"
         style="fill:#231f20;fill-opacity:1;fill-rule:nonzero;stroke:none;stroke-width:0.0352777"
         d="m 115.45659,172.82668 c 0.004,-0.24021 -0.0561,-0.43741 -0.17991,-0.59161 -0.12383,-0.15448 -0.29422,-0.23177 -0.51153,-0.23177 -0.12171,0 -0.22966,0.024 -0.3228,0.0717 -0.0935,0.0476 -0.1725,0.10971 -0.23706,0.18591 -0.0649,0.0762 -0.11536,0.16369 -0.1517,0.26278 -0.036,0.0992 -0.06,0.2001 -0.0713,0.30304 z m -2.04011,0.29146 c 0,-0.26281 0.0381,-0.49251 0.1143,-0.68862 0.0762,-0.19649 0.17709,-0.35913 0.30303,-0.48891 0.12559,-0.12912 0.27023,-0.22656 0.43427,-0.29147 0.16369,-0.0646 0.33161,-0.097 0.50306,-0.097 0.40005,0 0.70662,0.12485 0.92005,0.37426 0.21308,0.24945 0.31997,0.62978 0.31997,1.14022 0,0.0229 0,0.0525 0,0.0886 0,0.0363 -0.002,0.0695 -0.006,0.0998 h -2.03447 c 0.0226,0.30868 0.11218,0.54292 0.26847,0.70305 0.15627,0.16012 0.40005,0.23992 0.7313,0.23992 0.18697,0 0.34396,-0.0158 0.47167,-0.0484 0.1277,-0.0324 0.22401,-0.0638 0.28857,-0.0941 l 0.0744,0.44552 c -0.0649,0.0342 -0.17815,0.0706 -0.34008,0.10873 -0.16192,0.038 -0.34572,0.057 -0.55139,0.057 -0.25929,0 -0.48295,-0.0391 -0.67169,-0.11712 -0.18873,-0.0779 -0.34396,-0.18549 -0.46567,-0.32315 -0.12206,-0.13684 -0.21237,-0.29986 -0.27163,-0.48852 -0.0589,-0.18839 -0.0886,-0.39508 -0.0886,-0.61983" />
      <path
         id="path184"
         style="fill:#231f20;fill-opacity:1;fill-rule:nonzero;stroke:none;stroke-width:0.0352777"
         d="m 118.60584,172.16342 c -0.0536,-0.0152 -0.12489,-0.0292 -0.21449,-0.0426 -0.0896,-0.0135 -0.21061,-0.0201 -0.36301,-0.0201 -0.28575,0 -0.50553,0.0934 -0.66005,0.28 -0.15416,0.18673 -0.23142,0.43438 -0.23142,0.74306 0,0.17141 0.0219,0.31817 0.066,0.43988 0.0437,0.12206 0.10266,0.22295 0.17709,0.303 0.0741,0.0801 0.15981,0.13906 0.25718,0.17709 0.097,0.0382 0.1972,0.0572 0.29986,0.0572 0.14111,0 0.27058,-0.0201 0.38876,-0.0599 0.11818,-0.04 0.21131,-0.0868 0.28011,-0.14016 z m 0.006,2.20638 c -0.0459,0.0303 -0.13441,0.0695 -0.266,0.11712 -0.13123,0.0476 -0.28469,0.0713 -0.45967,0.0713 -0.17921,0 -0.34784,-0.0287 -0.50588,-0.0857 -0.1584,-0.0572 -0.29633,-0.1458 -0.41451,-0.26567 -0.11818,-0.1203 -0.21132,-0.26956 -0.28011,-0.4487 -0.0684,-0.17928 -0.10266,-0.39233 -0.10266,-0.63994 0,-0.21735 0.0324,-0.41631 0.097,-0.59725 0.0649,-0.18109 0.15911,-0.33737 0.28293,-0.46881 0.12383,-0.13134 0.27517,-0.23428 0.45438,-0.3084 0.17886,-0.0744 0.381,-0.11148 0.60572,-0.11148 0.24765,0 0.4639,0.018 0.64876,0.0543 0.18485,0.036 0.34007,0.0696 0.46566,0.0999 v 2.65176 c 0,0.45724 -0.11818,0.7885 -0.35419,0.99452 -0.23636,0.2056 -0.59443,0.30826 -1.07456,0.30826 -0.18662,0 -0.36301,-0.0151 -0.52846,-0.0455 -0.1658,-0.0307 -0.30974,-0.0667 -0.43145,-0.10859 l 0.097,-0.46288 c 0.10654,0.0416 0.23707,0.0789 0.39159,0.11148 0.15416,0.0321 0.31503,0.0484 0.4826,0.0484 0.31644,0 0.54398,-0.0628 0.68333,-0.18838 0.13899,-0.12595 0.20849,-0.32604 0.20849,-0.60011 v -0.12556" />
      <path
         id="path186"
         style="fill:#231f20;fill-opacity:1;fill-rule:nonzero;stroke:none;stroke-width:0.0352777"
         d="m 122.09164,173.11246 c 0,-0.33552 -0.0751,-0.60109 -0.22578,-0.79759 -0.15028,-0.19622 -0.35525,-0.29422 -0.61419,-0.29422 -0.25929,0 -0.4639,0.098 -0.61454,0.29422 -0.15028,0.1965 -0.22578,0.46207 -0.22578,0.79759 0,0.33514 0.0755,0.60086 0.22578,0.79693 0.15064,0.19611 0.35525,0.2945 0.61454,0.2945 0.25894,0 0.46391,-0.0984 0.61419,-0.2945 0.15063,-0.19607 0.22578,-0.46179 0.22578,-0.79693 z m 0.55456,0 c 0,0.23594 -0.0342,0.44941 -0.10301,0.63998 -0.0688,0.19046 -0.16475,0.35415 -0.28857,0.49142 -0.12383,0.13723 -0.27164,0.24306 -0.44309,0.31708 -0.17145,0.0744 -0.35807,0.11147 -0.55986,0.11147 -0.20214,0 -0.38876,-0.0371 -0.56021,-0.11147 -0.17145,-0.074 -0.31926,-0.17985 -0.44273,-0.31708 -0.12383,-0.13727 -0.22014,-0.30096 -0.28858,-0.49142 -0.0688,-0.19057 -0.10301,-0.40404 -0.10301,-0.63998 0,-0.23244 0.0342,-0.44481 0.10301,-0.63746 0.0684,-0.19223 0.16475,-0.35705 0.28858,-0.49432 0.12347,-0.13709 0.27128,-0.24292 0.44273,-0.31707 0.17145,-0.0744 0.35807,-0.11148 0.56021,-0.11148 0.20179,0 0.38841,0.0371 0.55986,0.11148 0.17145,0.0742 0.31926,0.17998 0.44309,0.31707 0.12382,0.13727 0.21978,0.30209 0.28857,0.49432 0.0688,0.19265 0.10301,0.40502 0.10301,0.63746" />
      <path
         id="path188"
         style="fill:#231f20;fill-opacity:1;fill-rule:nonzero;stroke:none;stroke-width:0.0352777"
         d="m 62.436385,159.67481 c -0.409963,0 -0.76207,-0.0589 -1.056428,-0.17745 -0.294605,-0.11818 -0.538515,-0.28434 -0.732014,-0.49777 -0.193322,-0.21378 -0.336232,-0.46496 -0.428413,-0.75353 -0.0926,-0.28858 -0.138783,-0.60608 -0.138783,-0.9525 v -3.75003 h 1.099961 v 3.64596 c 0,0.27128 0.03016,0.50376 0.0908,0.69709 0.06078,0.19367 0.14732,0.35066 0.25975,0.47201 0.112748,0.12136 0.245569,0.21061 0.398534,0.26847 0.152964,0.0579 0.324661,0.0868 0.515267,0.0868 0.190429,0 0.363643,-0.0289 0.519641,-0.0868 0.155858,-0.0579 0.29009,-0.14711 0.402661,-0.26847 0.112466,-0.12135 0.199143,-0.27834 0.259786,-0.47201 0.06061,-0.19333 0.09095,-0.42581 0.09095,-0.69709 v -3.64596 h 1.099679 v 3.75003 c 0,0.34642 -0.04755,0.66392 -0.14277,0.9525 -0.09521,0.28857 -0.239642,0.53975 -0.43314,0.75353 -0.193322,0.21343 -0.440126,0.37959 -0.740269,0.49777 -0.300285,0.11853 -0.655391,0.17745 -1.065213,0.17745" />
      <path
         id="path190"
         style="fill:#231f20;fill-opacity:1;fill-rule:nonzero;stroke:none;stroke-width:0.0352777"
         d="m 66.108167,155.28413 c 0.202001,-0.0575 0.464679,-0.11218 0.788106,-0.16439 0.323285,-0.0519 0.681002,-0.078 1.073749,-0.078 0.369465,0 0.678427,0.0508 0.926606,0.15169 0.24818,0.1009 0.446052,0.24236 0.593231,0.42439 0.14732,0.18168 0.251072,0.40146 0.311856,0.65829 0.0605,0.25647 0.09081,0.53798 0.09081,0.84419 v 2.546 H 68.84481 v -2.3816 c 0,-0.24236 -0.01598,-0.44874 -0.04784,-0.61913 -0.03154,-0.17004 -0.08364,-0.30868 -0.155821,-0.41557 -0.07221,-0.10689 -0.170357,-0.18486 -0.294358,-0.23389 -0.124178,-0.049 -0.275766,-0.0737 -0.454625,-0.0737 -0.132962,0 -0.271462,0.009 -0.415748,0.0261 -0.144428,0.0173 -0.251072,0.0317 -0.320393,0.043 v 3.65478 h -1.047856 v -4.38221" />
      <path
         id="path192"
         style="fill:#231f20;fill-opacity:1;fill-rule:nonzero;stroke:none;stroke-width:0.0352777"
         d="m 72.178837,159.66634 h -1.048138 v -4.52896 h 1.048138 z m 0.112431,-5.85399 c 0,0.19614 -0.06364,0.35207 -0.190571,0.46743 -0.126929,0.11535 -0.277142,0.17321 -0.450215,0.17321 -0.178999,0 -0.332105,-0.0579 -0.45914,-0.17321 -0.12693,-0.11536 -0.190465,-0.27129 -0.190465,-0.46743 0,-0.20215 0.06353,-0.3609 0.190465,-0.47661 0.127035,-0.11536 0.280141,-0.17321 0.45914,-0.17321 0.173073,0 0.323286,0.0579 0.450215,0.17321 0.12693,0.11571 0.190571,0.27446 0.190571,0.47661" />
      <path
         id="path194"
         style="fill:#231f20;fill-opacity:1;fill-rule:nonzero;stroke:none;stroke-width:0.0352777"
         d="m 75.053659,158.84366 c 0.323144,0 0.568325,-0.0173 0.735894,-0.0519 v -1.16063 c -0.0575,-0.0173 -0.141464,-0.0346 -0.250825,-0.0519 -0.109714,-0.0173 -0.231069,-0.0261 -0.364067,-0.0261 -0.115358,0 -0.232127,0.009 -0.350661,0.0261 -0.11818,0.0173 -0.225072,0.049 -0.320322,0.0953 -0.09525,0.0462 -0.171803,0.11112 -0.229411,0.19473 -0.05786,0.084 -0.08668,0.18909 -0.08668,0.31609 0,0.24835 0.078,0.4198 0.233892,0.51541 0.155928,0.0952 0.366536,0.14287 0.632178,0.14287 z m -0.08643,-3.90595 c 0.346075,0 0.637822,0.0437 0.874536,0.13017 0.236361,0.0864 0.425803,0.20779 0.567267,0.36372 0.141111,0.15592 0.242358,0.34501 0.303036,0.56726 0.06068,0.22225 0.09102,0.46637 0.09102,0.73166 v 2.74532 c -0.161925,0.0346 -0.405695,0.0765 -0.732014,0.12559 -0.32632,0.049 -0.694267,0.0734 -1.103842,0.0734 -0.271639,0 -0.519994,-0.0258 -0.745031,-0.0776 -0.225182,-0.0522 -0.417164,-0.13582 -0.575914,-0.25118 -0.15875,-0.11536 -0.282893,-0.26564 -0.372322,-0.4505 -0.08957,-0.18485 -0.134232,-0.4124 -0.134232,-0.68404 0,-0.25964 0.05045,-0.47942 0.151589,-0.65828 0.101,-0.17886 0.238125,-0.32455 0.411339,-0.43709 0.173073,-0.11289 0.373733,-0.19368 0.601944,-0.24271 0.228001,-0.049 0.466126,-0.0737 0.714481,-0.0737 0.115359,0 0.236362,0.008 0.363714,0.0219 0.126648,0.0145 0.262467,0.0388 0.406753,0.0734 v -0.17286 c 0,-0.12136 -0.01446,-0.23672 -0.04304,-0.34643 -0.02928,-0.10971 -0.07973,-0.20637 -0.151694,-0.29034 -0.07232,-0.0836 -0.16757,-0.14852 -0.28575,-0.19473 -0.118533,-0.0462 -0.267052,-0.0695 -0.44591,-0.0695 -0.242359,0 -0.464961,0.0176 -0.667033,0.0522 -0.202,0.0346 -0.366536,0.0752 -0.493465,0.12136 l -0.129822,-0.84878 c 0.132574,-0.0462 0.326072,-0.0924 0.580178,-0.13865 0.254,-0.0462 0.525286,-0.0695 0.814211,-0.0695" />
      <path
         id="path196"
         style="fill:#231f20;fill-opacity:1;fill-rule:nonzero;stroke:none;stroke-width:0.0352777"
         d="m 80.050403,159.66634 v -6.00146 h 3.853744 v 0.92675 h -2.762602 v 1.48061 h 2.459566 v 0.90946 h -2.459566 v 1.75789 h 2.970388 v 0.92675 h -4.06153" />
      <path
         id="path198"
         style="fill:#231f20;fill-opacity:1;fill-rule:nonzero;stroke:none;stroke-width:0.0352777"
         d="m 88.589035,159.43245 c -0.202142,0.0519 -0.464608,0.10548 -0.788104,0.16016 -0.323498,0.055 -0.678392,0.0822 -1.065038,0.0822 -0.363712,0 -0.668512,-0.0519 -0.913693,-0.15593 -0.245533,-0.10372 -0.441678,-0.248 -0.588786,-0.43286 -0.147461,-0.18485 -0.252589,-0.40569 -0.316089,-0.66216 -0.06385,-0.25718 -0.09525,-0.53869 -0.09525,-0.84455 v -2.53753 h 1.04775 v 2.37278 c 0,0.48507 0.07056,0.8315 0.212019,1.03928 0.141464,0.20779 0.388409,0.31186 0.740481,0.31186 0.127,0 0.261408,-0.006 0.402873,-0.0173 0.141462,-0.0116 0.246591,-0.0261 0.316087,-0.0434 v -3.66324 h 1.04775 v 4.39067" />
      <path
         id="path200"
         style="fill:#231f20;fill-opacity:1;fill-rule:nonzero;stroke:none;stroke-width:0.0352777"
         d="m 92.4516,156.08106 c -0.08678,-0.0289 -0.206727,-0.0593 -0.359482,-0.091 -0.153104,-0.0314 -0.330904,-0.0476 -0.532693,-0.0476 -0.115711,0 -0.238125,0.012 -0.367948,0.0346 -0.130175,0.0233 -0.220838,0.0434 -0.27305,0.0607 v 3.62867 h -1.04775 v -4.31271 c 0.202141,-0.0751 0.454731,-0.1457 0.757766,-0.21202 0.303038,-0.0663 0.639588,-0.0998 1.008946,-0.0998 0.06914,0 0.149929,0.005 0.242359,0.0131 0.09243,0.009 0.184854,0.0205 0.277283,0.0346 0.09208,0.0145 0.181679,0.0321 0.268462,0.0522 0.08643,0.0201 0.15593,0.0388 0.207788,0.0561 l -0.181681,0.88336" />
      <path
         id="path202"
         style="fill:#231f20;fill-opacity:1;fill-rule:nonzero;stroke:none;stroke-width:0.0352777"
         d="m 96.331098,157.28474 c 0,-0.4505 -0.09666,-0.80681 -0.289984,-1.06927 -0.193675,-0.26282 -0.46355,-0.39441 -0.809979,-0.39441 -0.346427,0 -0.616302,0.13159 -0.809625,0.39441 -0.193321,0.26246 -0.289983,0.61877 -0.289983,1.06927 0,0.45614 0.09666,0.81703 0.289983,1.08267 0.193323,0.26564 0.463198,0.39829 0.809625,0.39829 0.346429,0 0.616304,-0.13265 0.809979,-0.39829 0.193321,-0.26564 0.289984,-0.62653 0.289984,-1.08267 z m 1.073854,0 c 0,0.35807 -0.05221,0.68403 -0.155927,0.9786 -0.103717,0.29457 -0.251177,0.54575 -0.441677,0.75318 -0.1905,0.20814 -0.419807,0.36971 -0.688623,0.48507 -0.268111,0.11571 -0.564092,0.17322 -0.88759,0.17322 -0.323144,0 -0.617712,-0.0575 -0.883354,-0.17322 -0.26529,-0.11536 -0.493538,-0.27693 -0.684038,-0.48507 -0.1905,-0.20743 -0.339018,-0.45861 -0.44591,-0.75318 -0.106892,-0.29457 -0.16016,-0.62053 -0.16016,-0.9786 0,-0.35772 0.05327,-0.68263 0.16016,-0.97402 0.106892,-0.2914 0.256823,-0.54152 0.450498,-0.7493 0.192969,-0.20779 0.422627,-0.36795 0.688269,-0.48049 0.265641,-0.11253 0.557035,-0.16898 0.874535,-0.16898 0.3175,0 0.610658,0.0565 0.879123,0.16898 0.268465,0.11254 0.498123,0.2727 0.688623,0.48049 0.1905,0.20778 0.339019,0.4579 0.44591,0.7493 0.106892,0.29139 0.160161,0.6163 0.160161,0.97402" />
      <path
         id="path204"
         style="fill:#231f20;fill-opacity:1;fill-rule:nonzero;stroke:none;stroke-width:0.0352777"
         d="m 101.44038,157.42338 c 0,-0.46778 -0.10548,-0.8315 -0.31609,-1.09114 -0.21096,-0.26 -0.54998,-0.38982 -1.01741,-0.38982 -0.0984,0 -0.200732,0.004 -0.307624,0.013 -0.106892,0.009 -0.212021,0.0275 -0.31609,0.0561 v 2.58939 c 0.09243,0.0635 0.215194,0.12277 0.367948,0.1778 0.153106,0.055 0.316086,0.0822 0.489306,0.0822 0.38135,0 0.65969,-0.12982 0.83573,-0.38982 0.17603,-0.25965 0.26423,-0.6089 0.26423,-1.04775 z m 1.07385,-0.0173 c 0,0.34608 -0.0448,0.66393 -0.1344,0.9525 -0.0892,0.28893 -0.21767,0.53693 -0.38524,0.74472 -0.16757,0.20814 -0.37676,0.36936 -0.62794,0.48507 -0.25118,0.11536 -0.53552,0.17321 -0.85267,0.17321 -0.21378,0 -0.41028,-0.0261 -0.589137,-0.078 -0.178858,-0.0519 -0.326318,-0.10972 -0.441677,-0.17322 v 1.7579 h -1.04775 v -5.98418 c 0.213432,-0.0575 0.47625,-0.11218 0.788107,-0.16439 0.311854,-0.0519 0.640643,-0.078 0.987067,-0.078 0.35807,0 0.6784,0.055 0.96132,0.16474 0.28293,0.10972 0.52388,0.26706 0.7232,0.47202 0.19897,0.20496 0.35207,0.45297 0.45896,0.74436 0.10689,0.29175 0.16016,0.61948 0.16016,0.98319" />
      <path
         id="path206"
         style="fill:#231f20;fill-opacity:1;fill-rule:nonzero;stroke:none;stroke-width:0.0352777"
         d="m 106.33305,156.85188 c 0,-0.14429 -0.0201,-0.28152 -0.0603,-0.41134 -0.0406,-0.12982 -0.0998,-0.24271 -0.1778,-0.33796 -0.078,-0.0952 -0.17321,-0.17004 -0.28575,-0.22507 -0.11253,-0.0547 -0.24694,-0.0822 -0.40252,-0.0822 -0.16192,0 -0.30303,0.0303 -0.42439,0.091 -0.12135,0.0603 -0.22401,0.1397 -0.30762,0.23812 -0.0836,0.0981 -0.14852,0.21096 -0.19473,0.33761 -0.0462,0.127 -0.078,0.25718 -0.0953,0.38982 z m -3.03953,0.46743 c 0,-0.39829 0.0589,-0.74754 0.17745,-1.04775 0.11818,-0.30021 0.27587,-0.54998 0.47201,-0.74895 0.19615,-0.19932 0.42122,-0.3496 0.67557,-0.45049 0.254,-0.1009 0.51365,-0.15135 0.77929,-0.15135 0.62371,0 1.10984,0.19333 1.45909,0.57997 0.3496,0.387 0.52423,0.96449 0.52423,1.73214 0,0.0575 -0.002,0.12241 -0.004,0.19473 -0.003,0.0723 -0.007,0.13723 -0.0134,0.19474 h -2.98768 c 0.0289,0.36406 0.15734,0.64523 0.38559,0.84455 0.22789,0.19896 0.55845,0.2988 0.99166,0.2988 0.254,0 0.48613,-0.0229 0.69709,-0.0695 0.2106,-0.0462 0.37641,-0.0952 0.49776,-0.14711 l 0.13865,0.85725 c -0.0578,0.0293 -0.13723,0.0593 -0.23813,0.091 -0.10124,0.0318 -0.2166,0.0607 -0.34643,0.0868 -0.12982,0.0258 -0.26987,0.0476 -0.4198,0.0649 -0.15029,0.0173 -0.30339,0.0258 -0.45932,0.0258 -0.39828,0 -0.74471,-0.0589 -1.03893,-0.17745 -0.2946,-0.11818 -0.53696,-0.28258 -0.72746,-0.49354 -0.1905,-0.21061 -0.33231,-0.45896 -0.42439,-0.74471 -0.0924,-0.28575 -0.13864,-0.59902 -0.13864,-0.9398" />
      <path
         id="path208"
         style="fill:#231f20;fill-opacity:1;fill-rule:nonzero;stroke:none;stroke-width:0.0352777"
         d="m 109.59801,153.81235 c 0,0.19614 -0.0635,0.35207 -0.1905,0.46743 -0.127,0.11535 -0.27728,0.17321 -0.45014,0.17321 -0.17921,0 -0.33232,-0.0579 -0.45932,-0.17321 -0.127,-0.11536 -0.1905,-0.27129 -0.1905,-0.46743 0,-0.20215 0.0635,-0.3609 0.1905,-0.47661 0.127,-0.11536 0.28011,-0.17321 0.45932,-0.17321 0.17286,0 0.32314,0.0579 0.45014,0.17321 0.127,0.11571 0.1905,0.27446 0.1905,0.47661 z m -1.7406,7.46477 c -0.0751,0 -0.18027,-0.007 -0.31609,-0.0219 -0.13547,-0.0145 -0.25541,-0.0416 -0.35948,-0.0822 l 0.13864,-0.85725 c 0.127,0.0402 0.2801,0.0607 0.45896,0.0607 0.24236,0 0.41275,-0.0709 0.51082,-0.21202 0.0981,-0.14182 0.14711,-0.35419 0.14711,-0.63676 v -4.39032 h 1.04811 v 4.4076 c 0,0.58914 -0.14006,1.02482 -0.42016,1.30775 -0.28011,0.28258 -0.68263,0.42439 -1.20791,0.42439" />
      <path
         id="path210"
         style="fill:#231f20;fill-opacity:1;fill-rule:nonzero;stroke:none;stroke-width:0.0352777"
         d="m 111.90165,158.80909 c 0.27693,0 0.47907,-0.0335 0.60607,-0.0998 0.127,-0.0663 0.1905,-0.18027 0.1905,-0.34184 0,-0.15028 -0.0677,-0.27446 -0.20355,-0.37253 -0.13547,-0.0981 -0.35948,-0.20496 -0.67098,-0.32032 -0.1905,-0.0692 -0.36548,-0.14288 -0.52388,-0.22084 -0.1591,-0.078 -0.29598,-0.16898 -0.41134,-0.27305 -0.11571,-0.10372 -0.20673,-0.22931 -0.27305,-0.37642 -0.0663,-0.1471 -0.0995,-0.32773 -0.0995,-0.54116 0,-0.41592 0.1531,-0.7433 0.45896,-0.98319 0.30621,-0.23918 0.72179,-0.35913 1.24707,-0.35913 0.26529,0 0.51964,0.0243 0.762,0.0734 0.24271,0.0494 0.42439,0.097 0.54575,0.14323 l -0.1905,0.84843 c -0.11571,-0.0519 -0.26282,-0.0995 -0.44168,-0.14288 -0.17921,-0.0434 -0.387,-0.0649 -0.62371,-0.0649 -0.21343,0 -0.38664,0.036 -0.51964,0.10831 -0.13265,0.0723 -0.19897,0.18309 -0.19897,0.33337 0,0.0751 0.013,0.14147 0.0388,0.19897 0.0261,0.0579 0.0706,0.11148 0.13441,0.16016 0.0635,0.0494 0.14711,0.0984 0.25118,0.14746 0.10372,0.049 0.23072,0.0995 0.381,0.15169 0.248,0.0921 0.45896,0.1831 0.63218,0.2727 0.17321,0.0893 0.31609,0.19015 0.42862,0.30304 0.11254,0.11253 0.19474,0.2413 0.24695,0.38523 0.0519,0.14429 0.078,0.31785 0.078,0.51964 0,0.43321 -0.16052,0.76059 -0.48084,0.98284 -0.32032,0.22225 -0.77823,0.33338 -1.37266,0.33338 -0.39829,0 -0.71861,-0.0328 -0.96132,-0.0995 -0.24236,-0.0663 -0.41275,-0.11959 -0.51082,-0.16016 l 0.18204,-0.87489 c 0.15558,0.0639 0.34184,0.12418 0.55845,0.18204 0.21625,0.0579 0.4632,0.0868 0.74048,0.0868" />
      <path
         id="path212"
         style="fill:#231f20;fill-opacity:1;fill-rule:nonzero;stroke:none;stroke-width:0.0352777"
         d="m 115.72047,156.90374 c 0.13264,-0.13864 0.27411,-0.28716 0.42439,-0.44627 0.14993,-0.15839 0.29739,-0.3175 0.44168,-0.47625 0.14429,-0.15839 0.28151,-0.3115 0.41134,-0.45861 0.12982,-0.14746 0.24095,-0.27587 0.33337,-0.38523 h 1.2386 c -0.28892,0.32314 -0.59337,0.65793 -0.91369,1.00436 -0.32067,0.34607 -0.64241,0.68403 -0.96591,1.01318 0.17357,0.14428 0.35525,0.31891 0.54575,0.52387 0.1905,0.20496 0.37536,0.42298 0.55422,0.65405 0.17886,0.23072 0.34642,0.46179 0.50235,0.6925 0.15593,0.23107 0.28575,0.44486 0.38947,0.641 h -1.21215 c -0.10406,-0.17886 -0.22401,-0.36654 -0.35948,-0.56303 -0.13582,-0.19615 -0.28151,-0.38665 -0.43709,-0.5715 -0.15593,-0.18451 -0.31503,-0.35948 -0.4766,-0.52388 -0.16157,-0.16475 -0.32032,-0.30445 -0.47625,-0.42016 v 2.07857 h -1.04775 v -5.82824 l 1.04775,-0.17322 v 3.23886" />
      <path
         id="path214"
         style="fill:#231f20;fill-opacity:1;fill-rule:nonzero;stroke:none;stroke-width:0.0352777"
         d="m 120.98568,158.84366 c 0.32314,0 0.56867,-0.0173 0.73625,-0.0519 v -1.16063 c -0.0579,-0.0173 -0.14182,-0.0346 -0.25118,-0.0519 -0.10972,-0.0173 -0.23107,-0.0261 -0.36407,-0.0261 -0.11536,0 -0.23213,0.009 -0.35066,0.0261 -0.11818,0.0173 -0.22507,0.049 -0.32032,0.0953 -0.0952,0.0462 -0.17181,0.11112 -0.22931,0.19473 -0.0579,0.084 -0.0868,0.18909 -0.0868,0.31609 0,0.24835 0.078,0.4198 0.23389,0.51541 0.15593,0.0952 0.36654,0.14287 0.63218,0.14287 z m -0.0864,-3.90595 c 0.34643,0 0.63782,0.0437 0.87454,0.13017 0.23671,0.0864 0.4258,0.20779 0.56726,0.36372 0.14111,0.15592 0.24236,0.34501 0.30304,0.56726 0.0607,0.22225 0.091,0.46637 0.091,0.73166 v 2.74532 c -0.16193,0.0346 -0.4057,0.0765 -0.73202,0.12559 -0.32596,0.049 -0.69426,0.0734 -1.10384,0.0734 -0.27164,0 -0.51964,-0.0258 -0.74507,-0.0776 -0.22507,-0.0522 -0.41698,-0.13582 -0.57573,-0.25118 -0.15875,-0.11536 -0.28293,-0.26564 -0.37254,-0.4505 -0.0896,-0.18485 -0.13405,-0.4124 -0.13405,-0.68404 0,-0.25964 0.0504,-0.47942 0.15169,-0.65828 0.1009,-0.17886 0.23778,-0.32455 0.41134,-0.43709 0.17286,-0.11289 0.37359,-0.19368 0.60184,-0.24271 0.2279,-0.049 0.46602,-0.0737 0.71437,-0.0737 0.11536,0 0.23672,0.008 0.36372,0.0219 0.127,0.0145 0.26247,0.0388 0.40711,0.0734 v -0.17286 c 0,-0.12136 -0.0145,-0.23672 -0.0434,-0.34643 -0.0289,-0.10971 -0.0794,-0.20637 -0.1517,-0.29034 -0.0723,-0.0836 -0.16757,-0.14852 -0.28575,-0.19473 -0.11854,-0.0462 -0.26705,-0.0695 -0.44591,-0.0695 -0.24236,0 -0.46496,0.0176 -0.66675,0.0522 -0.20214,0.0346 -0.36689,0.0752 -0.49354,0.12136 l -0.13017,-0.84878 c 0.13299,-0.0462 0.32632,-0.0924 0.58032,-0.13865 0.254,-0.0462 0.52528,-0.0695 0.81421,-0.0695" />
    </g>
  </g>
</svg>
