<?xml version="1.0" encoding="UTF-8" standalone="no"?>
<svg
   xmlns:dc="http://purl.org/dc/elements/1.1/"
   xmlns:cc="http://creativecommons.org/ns#"
   xmlns:rdf="http://www.w3.org/1999/02/22-rdf-syntax-ns#"
   xmlns:svg="http://www.w3.org/2000/svg"
   xmlns="http://www.w3.org/2000/svg"
   xmlns:sodipodi="http://sodipodi.sourceforge.net/DTD/sodipodi-0.dtd"
   xmlns:inkscape="http://www.inkscape.org/namespaces/inkscape"
   inkscape:version="1.0 (1.0+r73+1)"
   sodipodi:docname="feir-logo-color-horizontal.svg"
   viewBox="0 0 184.16 78.720001"
   height="78.720001"
   width="184.16"
   xml:space="preserve"
   id="svg2"
   version="1.1"><metadata
     id="metadata8"><rdf:RDF><cc:Work
         rdf:about=""><dc:format>image/svg+xml</dc:format><dc:type
           rdf:resource="http://purl.org/dc/dcmitype/StillImage" /><dc:title></dc:title></cc:Work></rdf:RDF></metadata><defs
     id="defs6" /><sodipodi:namedview
     inkscape:current-layer="g10"
     inkscape:window-maximized="1"
     inkscape:window-y="0"
     inkscape:window-x="0"
     inkscape:cy="39.360001"
     inkscape:cx="92.080002"
     inkscape:zoom="6.9993483"
     showgrid="false"
     id="namedview4"
     inkscape:window-height="1383"
     inkscape:window-width="1276"
     inkscape:pageshadow="2"
     inkscape:pageopacity="0"
     guidetolerance="10"
     gridtolerance="10"
     objecttolerance="10"
     borderopacity="1"
     bordercolor="#666666"
     pagecolor="#ffffff" /><g
     transform="matrix(1.3333333,0,0,-1.3333333,0,78.72)"
     inkscape:label="ink_ext_XXXXXX"
     inkscape:groupmode="layer"
     id="g10"><g
       transform="scale(0.1)"
       id="g12"><path
         id="path14"
         style="fill:#231f20;fill-opacity:1;fill-rule:nonzero;stroke:none"
         d="m 439.453,372.285 v 105.973 h 66.973 v -16.36 h -47.703 v -27.07 h 42.351 v -16.359 h -42.351 v -46.184 z m 145.574,2.445 c -3.562,-0.917 -8.203,-1.859 -13.914,-2.824 -5.703,-0.972 -11.972,-1.457 -18.808,-1.457 -6.414,0 -11.809,0.922 -16.133,2.754 -4.324,1.832 -7.793,4.387 -10.402,7.649 -2.594,3.261 -4.461,7.168 -5.575,11.699 -1.113,4.527 -1.687,9.504 -1.687,14.906 v 44.805 h 18.504 v -41.899 c 0,-8.554 1.258,-14.683 3.75,-18.351 2.492,-3.668 6.855,-5.504 13.078,-5.504 2.234,0 4.617,0.109 7.105,0.308 2.493,0.196 4.36,0.461 5.586,0.762 v 64.684 h 18.496 z m 23.559,74.934 c 3.562,1.02 8.211,1.992 13.914,2.906 5.703,0.91 12.02,1.375 18.965,1.375 6.523,0 11.98,-0.898 16.355,-2.675 4.375,-1.782 7.883,-4.286 10.481,-7.497 2.597,-3.203 4.433,-7.082 5.5,-11.621 1.07,-4.535 1.609,-9.515 1.609,-14.906 v -44.961 h -18.508 v 42.051 c 0,4.285 -0.281,7.93 -0.839,10.937 -0.555,3.008 -1.485,5.461 -2.75,7.34 -1.27,1.883 -3.008,3.266 -5.2,4.125 -2.183,0.864 -4.871,1.305 -8.023,1.305 -2.356,0 -4.809,-0.156 -7.348,-0.461 -2.547,-0.301 -4.429,-0.559 -5.652,-0.762 v -64.535 h -18.504 z m 103.98,-37.16 c 0,-8.152 1.938,-14.555 5.813,-19.191 3.879,-4.641 9.226,-6.961 16.055,-6.961 2.961,0 5.488,0.132 7.578,0.386 2.082,0.25 3.789,0.539 5.117,0.84 v 45.879 c -1.633,1.117 -3.801,2.164 -6.492,3.137 -2.707,0.965 -5.586,1.449 -8.645,1.449 -6.726,0 -11.648,-2.297 -14.758,-6.887 -3.113,-4.582 -4.668,-10.804 -4.668,-18.652 z m 53.071,-37.774 c -3.672,-1.121 -8.293,-2.14 -13.84,-3.054 -5.559,-0.918 -11.399,-1.379 -17.512,-1.379 -6.316,0 -11.98,0.973 -16.98,2.906 -4.981,1.934 -9.246,4.719 -12.762,8.336 -3.52,3.617 -6.223,8.008 -8.105,13.149 -1.887,5.148 -2.825,10.933 -2.825,17.359 0,6.316 0.782,12.058 2.364,17.199 1.574,5.149 3.906,9.567 6.953,13.234 3.054,3.665 6.789,6.497 11.172,8.481 4.382,1.992 9.421,2.984 15.136,2.984 3.875,0 7.293,-0.465 10.242,-1.375 2.954,-0.914 5.508,-1.933 7.649,-3.058 v 38.383 l 18.508,3.058 z m 89.148,0 c -3.562,-0.917 -8.203,-1.859 -13.918,-2.824 -5.699,-0.972 -11.972,-1.457 -18.804,-1.457 -6.418,0 -11.809,0.922 -16.133,2.754 -4.328,1.832 -7.793,4.387 -10.403,7.649 -2.597,3.261 -4.464,7.168 -5.578,11.699 -1.121,4.527 -1.687,9.504 -1.687,14.906 v 44.805 h 18.508 v -41.899 c 0,-8.554 1.257,-14.683 3.75,-18.351 2.488,-3.668 6.851,-5.504 13.074,-5.504 2.234,0 4.621,0.109 7.109,0.308 2.488,0.196 4.356,0.461 5.574,0.762 v 64.684 h 18.508 z m 43.582,10.86 c 4.895,0 8.469,0.586 10.703,1.758 2.246,1.168 3.371,3.183 3.371,6.043 0,2.648 -1.203,4.843 -3.593,6.574 -2.395,1.73 -6.348,3.621 -11.856,5.656 -3.359,1.227 -6.445,2.527 -9.25,3.902 -2.801,1.372 -5.23,2.981 -7.262,4.813 -2.035,1.832 -3.656,4.062 -4.816,6.656 -1.172,2.594 -1.758,5.785 -1.758,9.555 0,7.34 2.696,13.125 8.106,17.359 5.398,4.235 12.746,6.34 22.011,6.34 4.7,0 9.192,-0.433 13.465,-1.293 4.282,-0.863 7.492,-1.707 9.629,-2.523 l -3.355,-14.989 c -2.043,0.918 -4.653,1.766 -7.805,2.524 -3.152,0.762 -6.836,1.148 -11.016,1.148 -3.769,0 -6.828,-0.636 -9.171,-1.914 -2.34,-1.269 -3.512,-3.238 -3.512,-5.886 0,-1.325 0.222,-2.5 0.68,-3.516 0.46,-1.02 1.261,-1.969 2.375,-2.832 1.113,-0.86 2.609,-1.738 4.433,-2.598 1.824,-0.863 4.082,-1.762 6.731,-2.676 4.382,-1.628 8.101,-3.242 11.16,-4.82 3.054,-1.574 5.586,-3.363 7.566,-5.348 1.992,-1.988 3.449,-4.265 4.36,-6.808 0.917,-2.543 1.375,-5.606 1.375,-9.176 0,-7.644 -2.825,-13.43 -8.489,-17.355 -5.652,-3.922 -13.726,-5.887 -24.234,-5.887 -7.031,0 -12.695,0.594 -16.977,1.758 -4.265,1.168 -7.285,2.117 -9.019,2.828 l 3.211,15.449 c 2.754,-1.121 6.047,-2.195 9.863,-3.215 3.816,-1.012 8.184,-1.527 13.074,-1.527 z m 105.823,53.672 c -2.03,-2.137 -4.717,-5.149 -8.03,-9.02 -3.308,-3.871 -6.851,-8.187 -10.625,-12.922 -3.765,-4.73 -7.574,-9.687 -11.394,-14.836 -3.809,-5.14 -7.254,-10.062 -10.325,-14.754 h 41.294 v -15.445 h -63.618 v 11.469 c 2.246,4.078 5.051,8.516 8.41,13.301 3.36,4.785 6.836,9.621 10.403,14.453 3.562,4.836 7.117,9.465 10.625,13.84 3.511,4.382 6.648,8.207 9.402,11.472 h -36.848 v 15.442 h 60.706 z m 11.02,-27.371 c 0,7.035 1.04,13.207 3.13,18.504 2.08,5.3 4.86,9.714 8.33,13.226 3.47,3.52 7.45,6.176 11.93,7.953 4.49,1.781 9.08,2.672 13.76,2.672 11.02,0 19.6,-3.41 25.77,-10.242 6.17,-6.824 9.25,-17.02 9.25,-30.582 0,-1.02 -0.03,-2.172 -0.08,-3.442 -0.04,-1.269 -0.12,-2.421 -0.22,-3.441 h -52.76 c 0.5,-6.422 2.78,-11.398 6.8,-14.906 4.03,-3.512 9.87,-5.281 17.51,-5.281 4.49,0 8.6,0.41 12.31,1.226 3.72,0.813 6.66,1.68 8.8,2.598 l 2.44,-15.137 c -1.02,-0.512 -2.42,-1.055 -4.2,-1.605 -1.78,-0.551 -3.83,-1.075 -6.11,-1.528 -2.3,-0.457 -4.78,-0.84 -7.43,-1.148 -2.64,-0.309 -5.35,-0.461 -8.1,-0.461 -7.03,0 -13.16,1.051 -18.35,3.137 -5.2,2.086 -9.48,4.996 -12.84,8.714 -3.37,3.719 -5.87,8.11 -7.5,13.157 -1.62,5.039 -2.44,10.574 -2.44,16.586 z m 53.67,8.257 c 0,2.547 -0.36,4.973 -1.08,7.262 -0.7,2.297 -1.76,4.293 -3.13,5.969 -1.37,1.676 -3.06,3.008 -5.04,3.976 -1.99,0.965 -4.36,1.454 -7.12,1.454 -2.84,0 -5.35,-0.543 -7.49,-1.61 -2.14,-1.062 -3.96,-2.476 -5.43,-4.203 -1.46,-1.73 -2.63,-3.726 -3.44,-5.965 -0.81,-2.242 -1.37,-4.535 -1.68,-6.883 z M 439.453,221.199 V 327.18 H 507.5 v -16.364 h -48.777 v -26.148 h 43.425 v -16.055 h -43.425 v -31.054 h 52.449 v -16.36 z m 151.692,2.453 c -3.567,-0.918 -8.207,-1.867 -13.911,-2.832 -5.711,-0.965 -11.98,-1.445 -18.816,-1.445 -6.414,0 -11.797,0.906 -16.133,2.742 -4.324,1.836 -7.793,4.387 -10.398,7.649 -2.602,3.261 -4.453,7.168 -5.578,11.699 -1.121,4.531 -1.68,9.512 -1.68,14.914 v 44.805 h 18.508 v -41.907 c 0,-8.554 1.238,-14.675 3.738,-18.339 2.5,-3.68 6.855,-5.508 13.074,-5.508 2.246,0 4.614,0.097 7.114,0.304 2.5,0.204 4.363,0.457 5.582,0.758 v 64.692 h 18.5 z m 69.128,60.86 c -1.535,0.508 -3.652,1.047 -6.347,1.601 -2.703,0.567 -5.84,0.84 -9.406,0.84 -2.04,0 -4.207,-0.195 -6.5,-0.605 -2.297,-0.41 -3.899,-0.762 -4.817,-1.075 v -64.074 h -18.508 v 76.16 c 3.567,1.329 8.032,2.575 13.379,3.746 5.356,1.172 11.301,1.758 17.824,1.758 1.219,0 2.649,-0.074 4.278,-0.23 1.633,-0.153 3.262,-0.356 4.89,-0.61 1.633,-0.253 3.215,-0.562 4.747,-0.918 1.527,-0.359 2.746,-0.691 3.664,-0.996 z m 88.379,-23.242 c 0,-6.321 -0.91,-12.079 -2.746,-17.286 -1.836,-5.195 -4.429,-9.629 -7.801,-13.3 -3.359,-3.672 -7.414,-6.524 -12.16,-8.567 -4.734,-2.039 -9.961,-3.054 -15.672,-3.054 -5.703,0 -10.91,1.015 -15.593,3.054 -4.692,2.043 -8.723,4.895 -12.082,8.567 -3.368,3.671 -5.996,8.105 -7.879,13.3 -1.887,5.207 -2.824,10.965 -2.824,17.286 0,6.32 0.937,12.05 2.824,17.207 1.883,5.144 4.539,9.55 7.957,13.222 3.41,3.672 7.461,6.5 12.16,8.489 4.684,1.984 9.832,2.98 15.437,2.98 5.606,0 10.782,-0.996 15.528,-2.98 4.734,-1.989 8.789,-4.817 12.148,-8.489 3.367,-3.672 5.996,-8.078 7.879,-13.222 1.887,-5.157 2.824,-10.887 2.824,-17.207 z m -18.957,0 c 0,7.949 -1.707,14.25 -5.125,18.886 -3.41,4.629 -8.175,6.953 -14.297,6.953 -6.113,0 -10.878,-2.324 -14.296,-6.953 -3.418,-4.636 -5.125,-10.937 -5.125,-18.886 0,-8.055 1.707,-14.422 5.125,-19.122 3.418,-4.687 8.183,-7.031 14.296,-7.031 6.122,0 10.887,2.344 14.297,7.031 3.418,4.7 5.125,11.067 5.125,19.122 z m 91.145,-0.469 c 0,8.262 -1.863,14.687 -5.586,19.277 -3.723,4.59 -9.707,6.875 -17.969,6.875 -1.726,0 -3.535,-0.066 -5.43,-0.223 -1.882,-0.148 -3.742,-0.48 -5.578,-0.988 V 240.02 c 1.633,-1.133 3.801,-2.168 6.496,-3.145 2.707,-0.969 5.586,-1.445 8.645,-1.445 6.727,0 11.648,2.285 14.754,6.875 3.113,4.59 4.668,10.761 4.668,18.496 z m 18.965,0.312 c 0,-6.113 -0.789,-11.718 -2.371,-16.816 -1.582,-5.098 -3.848,-9.481 -6.809,-13.152 -2.957,-3.672 -6.648,-6.528 -11.082,-8.567 -4.438,-2.043 -9.465,-3.055 -15.07,-3.055 -3.77,0 -7.239,0.457 -10.391,1.375 -3.164,0.918 -5.762,1.934 -7.805,3.055 V 192.91 h -18.504 v 105.676 c 3.77,1.016 8.411,1.984 13.915,2.902 5.507,0.918 11.32,1.375 17.433,1.375 6.317,0 11.984,-0.968 16.984,-2.906 4.989,-1.934 9.247,-4.715 12.762,-8.336 3.516,-3.613 6.223,-8 8.106,-13.144 1.882,-5.157 2.832,-10.938 2.832,-17.364 z m 14.675,-0.312 c 0,7.043 1.047,13.215 3.137,18.515 2.09,5.293 4.863,9.707 8.328,13.223 3.469,3.516 7.446,6.168 11.938,7.953 4.48,1.785 9.07,2.676 13.758,2.676 11.015,0 19.597,-3.418 25.769,-10.238 6.164,-6.836 9.25,-17.032 9.25,-30.586 0,-1.024 -0.027,-2.168 -0.078,-3.446 -0.051,-1.269 -0.129,-2.421 -0.227,-3.449 h -52.761 c 0.515,-6.406 2.785,-11.386 6.804,-14.902 4.028,-3.516 9.868,-5.274 17.512,-5.274 4.485,0 8.594,0.411 12.317,1.219 3.718,0.824 6.648,1.684 8.789,2.61 l 2.449,-15.149 c -1.027,-0.504 -2.422,-1.043 -4.207,-1.609 -1.789,-0.559 -3.828,-1.063 -6.113,-1.524 -2.297,-0.457 -4.778,-0.84 -7.422,-1.152 -2.649,-0.293 -5.356,-0.449 -8.11,-0.449 -7.027,0 -13.152,1.035 -18.347,3.125 -5.196,2.09 -9.485,5 -12.84,8.722 -3.371,3.719 -5.871,8.106 -7.5,13.153 -1.633,5.039 -2.446,10.578 -2.446,16.582 z m 53.672,8.262 c 0,2.558 -0.347,4.98 -1.062,7.265 -0.723,2.293 -1.758,4.285 -3.137,5.969 -1.375,1.687 -3.062,3.008 -5.047,3.973 -1.992,0.976 -4.355,1.457 -7.109,1.457 -2.852,0 -5.352,-0.539 -7.5,-1.614 -2.141,-1.062 -3.945,-2.461 -5.43,-4.199 -1.472,-1.738 -2.617,-3.719 -3.437,-5.965 -0.813,-2.238 -1.375,-4.543 -1.68,-6.886 z m 27.832,-76.309 c -1.316,0 -3.179,0.137 -5.574,0.391 -2.402,0.253 -4.512,0.734 -6.347,1.445 l 2.453,15.137 c 2.234,-0.704 4.937,-1.067 8.093,-1.067 4.286,0 7.293,1.25 9.024,3.742 1.738,2.5 2.597,6.25 2.597,11.25 v 77.532 h 18.504 V 223.34 c 0,-10.391 -2.468,-18.098 -7.41,-23.086 -4.941,-5 -12.058,-7.5 -21.34,-7.5 z m 30.746,131.824 c 0,-3.465 -1.125,-6.219 -3.371,-8.254 -2.238,-2.043 -4.89,-3.062 -7.949,-3.062 -3.164,0 -5.859,1.019 -8.105,3.062 -2.246,2.035 -3.36,4.789 -3.36,8.254 0,3.57 1.114,6.375 3.36,8.41 2.246,2.043 4.941,3.063 8.105,3.063 3.059,0 5.711,-1.02 7.949,-3.063 2.246,-2.035 3.371,-4.84 3.371,-8.41 z m 41.59,-90.066 c 4.89,0 8.47,0.586 10.7,1.758 2.25,1.171 3.37,3.183 3.37,6.035 0,2.656 -1.2,4.843 -3.59,6.582 -2.4,1.726 -6.35,3.613 -11.86,5.652 -3.36,1.223 -6.44,2.524 -9.245,3.899 -2.8,1.378 -5.222,2.988 -7.265,4.824 -2.039,1.836 -3.645,4.043 -4.817,6.648 -1.172,2.59 -1.758,5.785 -1.758,9.563 0,7.336 2.7,13.125 8.098,17.347 5.41,4.235 12.757,6.348 22.027,6.348 4.69,0 9.17,-0.434 13.45,-1.297 4.29,-0.871 7.5,-1.711 9.64,-2.523 l -3.36,-14.993 c -2.04,0.918 -4.64,1.758 -7.8,2.532 -3.17,0.761 -6.83,1.14 -11.02,1.14 -3.77,0 -6.82,-0.632 -9.17,-1.914 -2.34,-1.269 -3.51,-3.23 -3.51,-5.879 0,-1.328 0.22,-2.5 0.68,-3.515 0.46,-1.024 1.25,-1.973 2.37,-2.832 1.13,-0.867 2.6,-1.739 4.44,-2.598 1.83,-0.879 4.08,-1.758 6.73,-2.676 4.38,-1.64 8.1,-3.242 11.16,-4.824 3.05,-1.582 5.58,-3.359 7.57,-5.351 1.99,-1.993 3.44,-4.258 4.36,-6.797 0.92,-2.559 1.38,-5.614 1.38,-9.18 0,-7.645 -2.83,-13.438 -8.5,-17.363 -5.65,-3.926 -13.73,-5.879 -24.23,-5.879 -7.04,0 -12.69,0.586 -16.979,1.758 -4.277,1.171 -7.285,2.109 -9.023,2.832 l 3.215,15.437 c 2.754,-1.121 6.043,-2.195 9.859,-3.211 3.828,-1.015 8.188,-1.523 13.078,-1.523 z m 68.36,35.468 c 2.34,2.454 4.83,5.079 7.49,7.883 2.66,2.801 5.25,5.606 7.8,8.407 2.55,2.812 4.97,5.507 7.27,8.105 2.28,2.598 4.25,4.871 5.88,6.809 h 21.87 c -5.1,-5.711 -10.45,-11.621 -16.11,-17.746 -5.64,-6.114 -11.29,-12.071 -17,-17.891 3.06,-2.539 6.25,-5.625 9.61,-9.246 3.37,-3.625 6.63,-7.473 9.76,-11.555 3.17,-4.07 6.12,-8.144 8.87,-12.226 2.73,-4.082 5.02,-7.852 6.85,-11.321 h -21.4 c -1.84,3.164 -3.96,6.477 -6.35,9.946 -2.39,3.464 -4.97,6.824 -7.72,10.093 -2.76,3.254 -5.56,6.34 -8.41,9.25 -2.85,2.91 -5.66,5.371 -8.41,7.422 v -36.711 h -18.51 v 115.614 l 18.51,3.058 z m 84.41,-48.781 h -18.5 v 79.985 h 18.5 z m 1.99,103.379 c 0,-3.465 -1.13,-6.219 -3.36,-8.254 -2.25,-2.043 -4.9,-3.062 -7.96,-3.062 -3.16,0 -5.86,1.019 -8.11,3.062 -2.23,2.035 -3.36,4.789 -3.36,8.254 0,3.57 1.13,6.375 3.36,8.41 2.25,2.043 4.95,3.063 8.11,3.063 3.06,0 5.71,-1.02 7.96,-3.063 2.23,-2.035 3.36,-4.84 3.36,-8.41 z m 17.13,-63.777 c 0,7.043 1.04,13.215 3.13,18.515 2.09,5.293 4.87,9.707 8.34,13.223 3.46,3.516 7.44,6.168 11.92,7.953 4.49,1.785 9.08,2.676 13.76,2.676 11.02,0 19.6,-3.418 25.77,-10.238 6.17,-6.836 9.25,-17.032 9.25,-30.586 0,-1.024 -0.02,-2.168 -0.08,-3.446 -0.04,-1.269 -0.12,-2.421 -0.22,-3.449 h -52.76 c 0.51,-6.406 2.78,-11.386 6.8,-14.902 4.04,-3.516 9.88,-5.274 17.51,-5.274 4.5,0 8.6,0.411 12.32,1.219 3.72,0.824 6.65,1.684 8.79,2.61 l 2.45,-15.149 c -1.03,-0.504 -2.42,-1.043 -4.21,-1.609 -1.78,-0.559 -3.82,-1.063 -6.11,-1.524 -2.3,-0.457 -4.77,-0.84 -7.43,-1.152 -2.64,-0.293 -5.35,-0.449 -8.1,-0.449 -7.03,0 -13.15,1.035 -18.35,3.125 -5.2,2.09 -9.48,5 -12.84,8.722 -3.37,3.719 -5.86,8.106 -7.49,13.153 -1.64,5.039 -2.45,10.578 -2.45,16.582 z m 53.67,8.262 c 0,2.558 -0.35,4.98 -1.07,7.265 -0.71,2.293 -1.76,4.285 -3.13,5.969 -1.38,1.687 -3.06,3.008 -5.05,3.973 -1.99,0.976 -4.36,1.457 -7.11,1.457 -2.85,0 -5.35,-0.539 -7.49,-1.614 -2.15,-1.062 -3.96,-2.461 -5.43,-4.199 -1.48,-1.738 -2.63,-3.719 -3.45,-5.965 -0.81,-2.238 -1.36,-4.543 -1.68,-6.886 h 34.41" /><path
         id="path16"
         style="fill:#254aa5;fill-opacity:1;fill-rule:evenodd;stroke:none"
         d="M 292.273,0 0,50.0391 V 495.285 l 292.273,95.102 V 0" /><path
         id="path18"
         style="fill:#fff200;fill-opacity:1;fill-rule:evenodd;stroke:none"
         d="M 0,161.777 V 276.73 c 14.7188,-4.054 31.0938,-5.949 41.8867,0.633 23.6211,14.239 59.3753,57.77 59.3753,57.77 0,0 -18.8597,-46.957 -11.7503,-64.195 7.5274,-18.321 52.1993,-19.297 52.1993,-19.297 0,0 -50.5196,-31.016 -74.0157,-51.571 -24.1601,-20.968 -40.9375,-98.039 -40.9375,-98.039 0,0 -11.7265,49.395 -26.7578,59.746" /><path
         id="path20"
         style="fill:#ed1c24;fill-opacity:1;fill-rule:evenodd;stroke:none"
         d="m 292.273,364.586 c -10.125,-6.43 -20.039,-11.488 -27.488,-12.973 -23.496,-4.566 -48.633,22.684 -48.633,22.684 0,0 5.899,-39.848 -8.879,-64.399 -15.535,-25.875 -65.562,-58.257 -65.562,-58.257 0,0 55.281,10.8 66.031,-6.504 11.438,-18.574 12.981,-83.282 12.981,-83.282 0,0 28.156,77.676 53.711,88.262 4.98,2.129 11.191,4.102 17.839,6.016 v 108.453" /><path
         id="path22"
         style="fill:#ffffff;fill-opacity:1;fill-rule:evenodd;stroke:none"
         d="m 101.262,335.133 c 0,0 28.25,44.711 26.531,60.621 -1.672,15.109 -30.9649,20.551 -30.9649,20.551 0,0 38.3669,9.519 55.0859,24.703 16.145,14.691 30.266,45.137 30.266,45.137 0,0 3.55,-25.196 17.898,-28.809 14.817,-3.77 54.387,12.367 54.387,12.367 0,0 -31.242,-29.84 -43.508,-46.129 -12.793,-16.972 5.195,-49.277 5.195,-49.277 0,0 -33.156,11.641 -51.687,8.141 -18.266,-3.5 -63.203,-47.305 -63.203,-47.305" /><path
         id="path24"
         style="fill:#231f20;fill-opacity:1;fill-rule:nonzero;stroke:none"
         d="m 437.305,145.352 h 10.351 V 71.3672 h -10.351 z m 28.078,-20.071 c 2.273,0.571 5.301,1.172 9.07,1.809 3.77,0.644 8.113,0.969 13.027,0.969 4.407,0 8.079,-0.618 10.997,-1.868 2.91,-1.25 5.246,-2.988 6.992,-5.234 1.738,-2.246 2.969,-4.93 3.679,-8.055 0.715,-3.136 1.067,-6.593 1.067,-10.363 V 71.3672 h -9.922 V 100.41 c 0,3.418 -0.234,6.328 -0.703,8.75 -0.457,2.422 -1.223,4.375 -2.293,5.879 -1.067,1.484 -2.492,2.578 -4.27,3.242 -1.777,0.684 -3.984,1.016 -6.621,1.016 -1.062,0 -2.168,-0.027 -3.301,-0.098 -1.14,-0.078 -2.226,-0.156 -3.261,-0.273 -1.035,-0.098 -1.953,-0.227 -2.774,-0.371 -0.82,-0.137 -1.406,-0.254 -1.757,-0.321 V 71.3672 h -9.93 z m 70.562,1.594 h 21.028 v -8.32 H 535.945 V 92.9414 c 0,-2.7851 0.215,-5.0703 0.637,-6.8867 0.43,-1.8164 1.074,-3.2422 1.926,-4.2774 0.855,-1.0351 1.922,-1.7578 3.203,-2.1875 1.277,-0.4296 2.769,-0.6445 4.48,-0.6445 2.989,0 5.391,0.3399 7.207,1.0156 1.817,0.6836 3.079,1.1602 3.79,1.4454 l 1.921,-8.2227 c -0.996,-0.4961 -2.742,-1.1133 -5.23,-1.8633 -2.492,-0.7539 -5.344,-1.125 -8.535,-1.125 -3.781,0 -6.887,0.4883 -9.348,1.4453 -2.449,0.9571 -4.426,2.4024 -5.93,4.3164 -1.492,1.9336 -2.539,4.2969 -3.14,7.1094 -0.61,2.8125 -0.91,6.0547 -0.91,9.7656 v 49.531 l 9.929,1.7 z M 565.41,99.0234 c 0,4.9026 0.711,9.1996 2.129,12.8636 1.426,3.66 3.313,6.707 5.664,9.129 2.344,2.422 5.051,4.238 8.106,5.437 3.066,1.211 6.203,1.82 9.394,1.82 7.481,0 13.203,-2.335 17.188,-6.992 3.984,-4.66 5.988,-11.758 5.988,-21.3005 0,-0.4297 0,-0.9766 0,-1.6602 0,-0.664 -0.039,-1.289 -0.109,-1.8555 h -38.008 c 0.429,-5.7695 2.097,-10.1445 5.019,-13.1367 2.91,-2.9961 7.473,-4.4804 13.66,-4.4804 3.489,0 6.426,0.2929 8.813,0.8984 2.383,0.6055 4.18,1.1914 5.391,1.7695 l 1.382,-8.332 c -1.211,-0.6445 -3.328,-1.3086 -6.343,-2.0313 -3.032,-0.7031 -6.465,-1.0625 -10.305,-1.0625 -4.844,0 -9.024,0.7305 -12.551,2.1954 -3.523,1.4531 -6.414,3.457 -8.699,6.0273 -2.274,2.5664 -3.965,5.6016 -5.066,9.1289 -1.106,3.5156 -1.653,7.3828 -1.653,11.582 z m 38.106,5.4496 c 0.078,4.472 -1.043,8.164 -3.36,11.035 -2.312,2.89 -5.5,4.328 -9.558,4.328 -2.278,0 -4.289,-0.441 -6.028,-1.34 -1.75,-0.879 -3.222,-2.043 -4.433,-3.457 -1.211,-1.426 -2.149,-3.066 -2.832,-4.922 -0.672,-1.844 -1.114,-3.73 -1.328,-5.644 z m 41.32,-34.1605 c -6.125,0.1367 -10.473,1.4453 -13.027,3.9453 -2.563,2.4883 -3.84,6.3672 -3.84,11.6328 V 152.5 l 9.922,1.711 V 87.4883 c 0,-1.6289 0.136,-2.9844 0.429,-4.0508 0.285,-1.0742 0.743,-1.9219 1.387,-2.5586 0.637,-0.6445 1.492,-1.1328 2.559,-1.4453 1.074,-0.3203 2.382,-0.5859 3.957,-0.8008 z m 22.41,1.0547 h -9.933 v 55.5078 h 9.933 z m -5.019,65.5468 c -1.778,0 -3.289,0.586 -4.532,1.77 -1.25,1.171 -1.875,2.754 -1.875,4.754 0,1.984 0.625,3.574 1.875,4.746 1.243,1.171 2.754,1.757 4.532,1.757 1.777,0 3.3,-0.586 4.543,-1.757 1.238,-1.172 1.863,-2.762 1.863,-4.746 0,-2 -0.625,-3.583 -1.863,-4.754 -1.243,-1.184 -2.766,-1.77 -4.543,-1.77 z m 56.906,-59.9882 c -0.863,-0.5781 -2.512,-1.3008 -4.973,-2.1875 -2.449,-0.8906 -5.312,-1.3399 -8.594,-1.3399 -3.339,0 -6.484,0.5391 -9.445,1.6016 -2.945,1.0742 -5.535,2.7266 -7.73,4.9609 -2.219,2.2461 -3.957,5.0391 -5.239,8.3789 -1.277,3.3516 -1.922,7.336 -1.922,11.9652 0,4.05 0.606,7.769 1.817,11.148 1.211,3.391 2.969,6.301 5.281,8.762 2.317,2.449 5.149,4.375 8.488,5.762 3.352,1.386 7.122,2.082 11.321,2.082 4.629,0 8.66,-0.344 12.117,-1.008 3.445,-0.684 6.348,-1.309 8.691,-1.875 V 75.6445 c 0,-8.5429 -2.207,-14.7265 -6.621,-18.5742 -4.402,-3.8476 -11.094,-5.7617 -20.058,-5.7617 -3.489,0 -6.778,0.2734 -9.871,0.8477 -3.11,0.5703 -5.793,1.2421 -8.071,2.0234 l 1.821,8.6523 c 1.992,-0.7812 4.429,-1.4726 7.312,-2.0781 2.883,-0.6055 5.891,-0.9101 9.016,-0.9101 5.906,0 10.164,1.1718 12.761,3.5156 2.598,2.3633 3.899,6.0937 3.899,11.2109 z m -0.11,41.1992 c -0.996,0.293 -2.335,0.559 -4.003,0.801 -1.668,0.254 -3.934,0.371 -6.778,0.371 -5.344,0 -9.453,-1.738 -12.336,-5.223 -2.879,-3.488 -4.312,-8.117 -4.312,-13.879 0,-3.2028 0.398,-5.9372 1.219,-8.2223 0.82,-2.2735 1.921,-4.1602 3.308,-5.6524 1.391,-1.4961 2.988,-2.5976 4.809,-3.3125 1.812,-0.7109 3.679,-1.0742 5.601,-1.0742 2.629,0 5.051,0.3828 7.258,1.1328 2.207,0.7422 3.953,1.6133 5.234,2.6172 z M 742.93,99.0234 c 0,4.9026 0.715,9.1996 2.136,12.8636 1.426,3.66 3.313,6.707 5.657,9.129 2.351,2.422 5.058,4.238 8.117,5.437 3.062,1.211 6.187,1.82 9.39,1.82 7.473,0 13.208,-2.335 17.192,-6.992 3.98,-4.66 5.973,-11.758 5.973,-21.3005 0,-0.4297 0,-0.9766 0,-1.6602 0,-0.664 -0.04,-1.289 -0.106,-1.8555 h -37.996 c 0.43,-5.7695 2.098,-10.1445 5.008,-13.1367 2.922,-2.9961 7.48,-4.4804 13.672,-4.4804 3.488,0 6.418,0.2929 8.808,0.8984 2.383,0.6055 4.18,1.1914 5.391,1.7695 l 1.387,-8.332 c -1.211,-0.6445 -3.329,-1.3086 -6.36,-2.0313 -3.015,-0.7031 -6.453,-1.0625 -10.293,-1.0625 -4.843,0 -9.019,0.7305 -12.547,2.1954 -3.523,1.4531 -6.425,3.457 -8.703,6.0273 -2.273,2.5664 -3.965,5.6016 -5.066,9.1289 -1.106,3.5156 -1.66,7.3828 -1.66,11.582 z m 38.117,5.4496 c 0.066,4.472 -1.059,8.164 -3.359,11.035 -2.317,2.89 -5.508,4.328 -9.563,4.328 -2.273,0 -4.285,-0.441 -6.035,-1.34 -1.738,-0.879 -3.211,-2.043 -4.422,-3.457 -1.215,-1.426 -2.16,-3.066 -2.832,-4.922 -0.676,-1.844 -1.113,-3.73 -1.328,-5.644 z m 24.656,20.808 c 2.277,0.571 5.305,1.172 9.07,1.809 3.774,0.644 8.118,0.969 13.032,0.969 4.402,0 8.074,-0.618 10.996,-1.868 2.918,-1.25 5.242,-2.988 6.98,-5.234 1.746,-2.246 2.981,-4.93 3.692,-8.055 0.715,-3.136 1.062,-6.593 1.062,-10.363 V 71.3672 h -9.93 V 100.41 c 0,3.418 -0.222,6.328 -0.695,8.75 -0.457,2.422 -1.219,4.375 -2.281,5.879 -1.074,1.484 -2.5,2.578 -4.277,3.242 -1.782,0.684 -3.989,1.016 -6.614,1.016 -1.074,0 -2.175,-0.027 -3.308,-0.098 -1.145,-0.078 -2.231,-0.156 -3.262,-0.273 -1.027,-0.098 -1.953,-0.227 -2.773,-0.371 -0.825,-0.137 -1.411,-0.254 -1.758,-0.321 V 71.3672 h -9.934 z m 70.567,1.594 h 21.027 v -8.32 H 876.27 V 92.9414 c 0,-2.7851 0.214,-5.0703 0.632,-6.8867 0.434,-1.8164 1.078,-3.2422 1.926,-4.2774 0.86,-1.0351 1.926,-1.7578 3.203,-2.1875 1.282,-0.4296 2.774,-0.6445 4.485,-0.6445 2.988,0 5.386,0.3399 7.207,1.0156 1.812,0.6836 3.074,1.1602 3.789,1.4454 l 1.922,-8.2227 c -0.996,-0.4961 -2.746,-1.1133 -5.235,-1.8633 -2.488,-0.7539 -5.332,-1.125 -8.535,-1.125 -3.777,0 -6.887,0.4883 -9.348,1.4453 -2.449,0.9571 -4.421,2.4024 -5.925,4.3164 -1.496,1.9336 -2.539,4.2969 -3.145,7.1094 -0.605,2.8125 -0.906,6.0547 -0.906,9.7656 v 49.531 l 9.93,1.7 z m 33.625,-1.594 c 2.273,0.571 5.3,1.172 9.07,1.809 3.769,0.644 8.113,0.969 13.027,0.969 4.414,0 8.074,-0.618 10.996,-1.868 2.91,-1.25 5.242,-2.988 6.992,-5.234 1.739,-2.246 2.969,-4.93 3.68,-8.055 0.715,-3.136 1.067,-6.593 1.067,-10.363 V 71.3672 h -9.922 V 100.41 c 0,3.418 -0.235,6.328 -0.703,8.75 -0.457,2.422 -1.219,4.375 -2.293,5.879 -1.067,1.484 -2.493,2.578 -4.27,3.242 -1.777,0.684 -3.984,1.016 -6.621,1.016 -1.063,0 -2.168,-0.027 -3.301,-0.098 -1.14,-0.078 -2.226,-0.156 -3.262,-0.273 -1.035,-0.098 -1.953,-0.227 -2.773,-0.371 -0.82,-0.137 -1.406,-0.254 -1.758,-0.321 V 71.3672 h -9.929 z m 52.839,-64.2654 c 0.782,-0.3515 1.797,-0.6836 3.047,-1.0156 1.239,-0.3125 2.473,-0.4766 3.684,-0.4766 3.914,0 6.973,0.8672 9.18,2.6172 2.207,1.7461 4.199,4.5703 5.972,8.4844 -4.48,8.5352 -8.66,17.5977 -12.539,27.168 -3.875,9.57 -7.105,19.27 -9.668,29.082 h 10.676 c 0.793,-3.203 1.727,-6.641 2.832,-10.352 1.102,-3.691 2.336,-7.5 3.684,-11.414 1.355,-3.918 2.808,-7.8317 4.375,-11.7496 1.57,-3.9063 3.203,-7.6758 4.91,-11.3086 2.707,7.4726 5.058,14.8633 7.051,22.1952 1.992,7.336 3.875,14.875 5.652,22.629 h 10.25 c -2.56,-10.449 -5.4,-20.508 -8.54,-30.1562 -3.13,-9.629 -6.515,-18.6524 -10.136,-27.0508 -1.426,-3.2032 -2.898,-5.9571 -4.434,-8.2813 -1.535,-2.3047 -3.222,-4.207 -5.07,-5.7031 -1.851,-1.5039 -3.933,-2.5977 -6.25,-3.3125 -2.312,-0.7109 -4.93,-1.0625 -7.84,-1.0625 -0.781,0 -1.601,0.0508 -2.461,0.1562 -0.847,0.1094 -1.687,0.254 -2.507,0.4297 -0.813,0.1758 -1.567,0.3711 -2.239,0.586 -0.683,0.2148 -1.164,0.3906 -1.445,0.5273 z m 121.056,41.3084 c 1.14,-1.418 2.58,-3.281 4.33,-5.6052 1.73,-2.3047 3.54,-4.8633 5.39,-7.6758 1.85,-2.8125 3.68,-5.7539 5.49,-8.8086 1.82,-3.0664 3.36,-6.0156 4.64,-8.8672 h -11.31 c -1.42,2.7148 -2.97,5.4492 -4.64,8.2226 -1.67,2.7735 -3.36,5.4297 -5.07,7.9493 -1.71,2.539 -3.4,4.9023 -5.07,7.1093 -1.67,2.2071 -3.18,4.1211 -4.54,5.7616 -0.93,-0.078 -1.87,-0.105 -2.83,-0.105 -0.96,0 -1.94,0 -2.93,0 h -9.29 V 71.3672 h -10.36 v 72.9098 c 2.92,0.723 6.18,1.192 9.77,1.446 3.6,0.254 6.89,0.371 9.88,0.371 10.39,0 18.31,-1.953 23.75,-5.86 5.44,-3.925 8.16,-9.754 8.16,-17.519 0,-4.902 -1.3,-9.102 -3.9,-12.598 -2.59,-3.476 -6.41,-6.074 -11.47,-7.793 z m -15.69,34.699 c -4.42,0 -7.8,-0.109 -10.14,-0.324 V 108.84 h 7.36 c 3.57,0 6.76,0.183 9.61,0.535 2.84,0.352 5.25,1.035 7.21,2.031 1.95,0.996 3.47,2.403 4.53,4.219 1.07,1.809 1.6,4.211 1.6,7.207 0,2.773 -0.53,5.078 -1.6,6.934 -1.06,1.847 -2.5,3.3 -4.32,4.375 -1.81,1.074 -3.95,1.816 -6.4,2.246 -2.46,0.429 -5.07,0.636 -7.85,0.636 z m 95.01,-37.9019 c 0,-4.4023 -0.64,-8.3984 -1.93,-11.9531 -1.28,-3.5547 -3.07,-6.6211 -5.39,-9.1797 -2.3,-2.5586 -5.07,-4.5313 -8.27,-5.918 -3.2,-1.3867 -6.69,-2.0898 -10.46,-2.0898 -3.77,0 -7.26,0.7031 -10.46,2.0898 -3.2,1.3867 -5.97,3.3594 -8.27,5.918 -2.31,2.5586 -4.12,5.625 -5.39,9.1797 -1.29,3.5547 -1.92,7.5508 -1.92,11.9531 0,4.3479 0.63,8.3199 1.92,11.9139 1.27,3.594 3.08,6.668 5.39,9.231 2.3,2.566 5.07,4.539 8.27,5.925 3.2,1.387 6.69,2.082 10.46,2.082 3.77,0 7.26,-0.695 10.46,-2.082 3.2,-1.386 5.97,-3.359 8.27,-5.925 2.32,-2.563 4.11,-5.637 5.39,-9.231 1.29,-3.594 1.93,-7.566 1.93,-11.9139 z m -10.36,0 c 0,6.2699 -1.4,11.2309 -4.21,14.9019 -2.82,3.665 -6.65,5.489 -11.48,5.489 -4.83,0 -8.66,-1.824 -11.47,-5.489 -2.82,-3.671 -4.22,-8.632 -4.22,-14.9019 0,-6.2578 1.4,-11.2188 4.22,-14.8828 2.81,-3.6719 6.64,-5.5 11.47,-5.5 4.83,0 8.66,1.8281 11.48,5.5 2.81,3.664 4.21,8.625 4.21,14.8828 z m 59.04,20.2929 c -1.5,-1.641 -3.48,-3.953 -5.93,-6.941 -2.45,-2.989 -5.09,-6.301 -7.9,-9.934 -2.81,-3.6249 -5.62,-7.4296 -8.43,-11.4257 -2.81,-3.9844 -5.29,-7.7852 -7.42,-11.4063 h 30.53 v -8.3398 h -42.38 v 6.6211 c 1.7,3.1328 3.8,6.582 6.3,10.3515 2.48,3.7774 5.1,7.5274 7.84,11.2696 2.74,3.7306 5.41,7.2536 8.01,10.5666 2.6,3.312 4.86,6.105 6.78,8.379 h -27.43 v 8.32 h 40.03 z m 58.82,-48.0468 c -2,5.125 -4.12,10.9766 -6.35,17.5586 -2.25,6.582 -4.3,13.4372 -6.14,20.5582 -1.85,-7.121 -3.88,-13.9762 -6.09,-20.5582 -2.21,-6.582 -4.31,-12.4336 -6.3,-17.5586 h -8.64 c -3.28,7.332 -6.48,15.7031 -9.61,25.0976 -3.13,9.3942 -6.08,19.5312 -8.86,30.4102 h 10.68 c 0.7,-3.34 1.56,-6.973 2.56,-10.879 0.99,-3.918 2.04,-7.832 3.15,-11.75 1.09,-3.914 2.26,-7.6835 3.47,-11.3046 1.21,-3.6328 2.34,-6.8086 3.4,-9.5039 1.22,3.3398 2.41,6.8867 3.59,10.625 1.17,3.7305 2.29,7.5005 3.36,11.3085 1.06,3.809 2.08,7.539 3.05,11.211 0.95,3.66 1.78,7.09 2.5,10.293 h 8.22 c 0.64,-3.203 1.42,-6.633 2.34,-10.293 0.93,-3.672 1.93,-7.402 3,-11.211 1.06,-3.808 2.19,-7.578 3.36,-11.3085 1.17,-3.7383 2.36,-7.2852 3.57,-10.625 1.08,2.6953 2.19,5.8711 3.36,9.5039 1.18,3.6211 2.34,7.3906 3.48,11.3046 1.13,3.918 2.21,7.832 3.2,11.75 1,3.906 1.85,7.539 2.56,10.879 h 10.25 c -2.78,-10.879 -5.73,-21.016 -8.86,-30.4102 -3.13,-9.3945 -6.33,-17.7656 -9.61,-25.0976 z m 85.29,27.7539 c 0,-4.4023 -0.64,-8.3984 -1.93,-11.9531 -1.27,-3.5547 -3.07,-6.6211 -5.39,-9.1797 -2.31,-2.5586 -5.06,-4.5313 -8.27,-5.918 -3.2,-1.3867 -6.69,-2.0898 -10.46,-2.0898 -3.77,0 -7.25,0.7031 -10.46,2.0898 -3.2,1.3867 -5.96,3.3594 -8.27,5.918 -2.32,2.5586 -4.12,5.625 -5.39,9.1797 -1.29,3.5547 -1.92,7.5508 -1.92,11.9531 0,4.3479 0.63,8.3199 1.92,11.9139 1.27,3.594 3.07,6.668 5.39,9.231 2.31,2.566 5.07,4.539 8.27,5.925 3.21,1.387 6.69,2.082 10.46,2.082 3.77,0 7.26,-0.695 10.46,-2.082 3.21,-1.386 5.96,-3.359 8.27,-5.925 2.32,-2.563 4.12,-5.637 5.39,-9.231 1.29,-3.594 1.93,-7.566 1.93,-11.9139 z m -10.35,0 c 0,6.2699 -1.41,11.2309 -4.22,14.9019 -2.81,3.665 -6.64,5.489 -11.48,5.489 -4.84,0 -8.66,-1.824 -11.47,-5.489 -2.81,-3.671 -4.22,-8.632 -4.22,-14.9019 0,-6.2578 1.41,-11.2188 4.22,-14.8828 2.81,-3.6719 6.63,-5.5 11.47,-5.5 4.84,0 8.67,1.8281 11.48,5.5 2.81,3.664 4.22,8.625 4.22,14.8828 z m -2.78,48.7889 -15.06,-14.621 -5.01,4.484 13.66,16.438 z m 18.04,-96.5037 c -0.85,0 -1.96,0.1171 -3.31,0.3242 -1.36,0.2148 -2.49,0.4961 -3.42,0.8476 l 1.28,8.1172 c 0.71,-0.207 1.53,-0.3828 2.46,-0.539 0.93,-0.1368 1.78,-0.2071 2.56,-0.2071 3.42,0 5.86,1.0469 7.32,3.1563 1.45,2.0898 2.18,5.1758 2.18,9.2304 v 54.5391 h 9.93 V 72.4414 c 0,-7.1172 -1.62,-12.4023 -4.86,-15.8594 -3.23,-3.4453 -7.95,-5.1757 -14.14,-5.1757 z m 13.98,85.5077 c -1.77,0 -3.29,0.586 -4.54,1.77 -1.24,1.171 -1.86,2.754 -1.86,4.754 0,1.984 0.62,3.574 1.86,4.746 1.25,1.171 2.77,1.757 4.54,1.757 1.78,0 3.3,-0.586 4.55,-1.757 1.24,-1.172 1.86,-2.762 1.86,-4.746 0,-2 -0.62,-3.583 -1.86,-4.754 -1.25,-1.184 -2.77,-1.77 -4.55,-1.77" /></g></g></svg>
