<?xml version="1.0" encoding="UTF-8" standalone="no"?>
<svg
   xmlns:dc="http://purl.org/dc/elements/1.1/"
   xmlns:cc="http://creativecommons.org/ns#"
   xmlns:rdf="http://www.w3.org/1999/02/22-rdf-syntax-ns#"
   xmlns:svg="http://www.w3.org/2000/svg"
   xmlns="http://www.w3.org/2000/svg"
   xmlns:sodipodi="http://sodipodi.sourceforge.net/DTD/sodipodi-0.dtd"
   xmlns:inkscape="http://www.inkscape.org/namespaces/inkscape"
   inkscape:version="1.0 (1.0+r73+1)"
   sodipodi:docname="ncbr-logo-redtext-pl.svg"
   viewBox="0 0 765.46667 269.09332"
   height="269.09332"
   width="765.46667"
   xml:space="preserve"
   id="svg234"
   version="1.1"><metadata
     id="metadata240"><rdf:RDF><cc:Work
         rdf:about=""><dc:format>image/svg+xml</dc:format><dc:type
           rdf:resource="http://purl.org/dc/dcmitype/StillImage" /><dc:title></dc:title></cc:Work></rdf:RDF></metadata><defs
     id="defs238" /><sodipodi:namedview
     inkscape:current-layer="g242"
     inkscape:window-maximized="1"
     inkscape:window-y="0"
     inkscape:window-x="0"
     inkscape:cy="134.54666"
     inkscape:cx="382.73334"
     inkscape:zoom="1.6839401"
     showgrid="false"
     id="namedview236"
     inkscape:window-height="1383"
     inkscape:window-width="1276"
     inkscape:pageshadow="2"
     inkscape:pageopacity="0"
     guidetolerance="10"
     gridtolerance="10"
     objecttolerance="10"
     borderopacity="1"
     bordercolor="#666666"
     pagecolor="#ffffff" /><g
     transform="matrix(1.3333333,0,0,-1.3333333,0,269.09333)"
     inkscape:label="ink_ext_XXXXXX"
     inkscape:groupmode="layer"
     id="g242"><g
       transform="scale(0.1)"
       id="g244"><path
         id="path246"
         style="fill:#a7a5a6;fill-opacity:1;fill-rule:evenodd;stroke:none"
         d="M 2850.37,0.519531 C 2066.29,-18.3906 2101.93,482.102 2125.27,595.43 c 78.16,379.949 109.35,516.11 -481.82,690.34 232.1,35.39 359.59,138.5 359.59,285 0,198.06 -191.19,299.51 -566.65,299.51 H 990.32 V 925.719 h 227.6 V 1218.14 C 2567.76,1077.71 1858.12,268.09 2850.37,0.519531 Z M 1766.32,1548.19 c 0,-122.34 -134.27,-201.21 -368.66,-201.21 h -179.74 v 396.11 h 172.9 c 254.91,0 375.5,-57.99 375.5,-194.9 v 0" /><path
         id="path248"
         style="fill:#4f4c4c;fill-opacity:1;fill-rule:evenodd;stroke:none"
         d="m 0,1319.18 c 0,123 120.938,207.19 353.805,239.26 -200.86,32.04 -305.887,108.29 -305.887,215.19 0,151.06 194.07,244.62 561.633,244.62 H 1054.73 V 1047.82 H 607.211 C 212.273,1047.82 0,1149.39 0,1319.18 Z m 285.293,441.11 c 0,-98.94 127.895,-157.74 369.887,-157.74 H 826.438 V 1911.3 H 634.645 c -228.297,0 -349.352,-53.47 -349.352,-151.01 z m -45.582,-430.45 c 0,-110.93 139.191,-171.08 408.629,-171.08 h 178.098 v 339.53 H 620.945 c -253.39,0 -381.234,-58.82 -381.234,-168.45 v 0" /><path
         id="path250"
         style="fill:#b72531;fill-opacity:1;fill-rule:nonzero;stroke:none"
         d="m 2963.99,1136.61 h -32.15 l -122.58,253.74 v -253.74 h -24.87 v 297.46 h 30.01 l 124.73,-258.46 v 258.46 h 24.86 v -297.46" /><path
         id="path252"
         style="fill:#b72531;fill-opacity:1;fill-rule:nonzero;stroke:none"
         d="m 3132.01,1228.76 v 17.57 c -15.5,0.86 -23.4,1.28 -23.68,1.28 -47.08,0 -70.61,-16.72 -70.61,-50.15 0,-13.43 3.65,-23.93 10.96,-31.5 7.33,-7.57 17.32,-11.35 29.94,-11.35 35.58,0 53.39,24.71 53.39,74.15 z m 26.14,-92.15 h -22.71 l -3.43,25.28 c -12.28,-19.43 -30.3,-29.15 -54.02,-29.15 -20.55,0 -36.58,5.64 -47.99,16.94 -11.44,11.28 -17.14,26.93 -17.14,46.93 0,47.15 32.85,70.72 98.58,70.72 l 20.57,-0.86 v 15.86 c 0,34.87 -15.77,52.3 -47.33,52.3 -19.23,0 -36,-7.58 -50.34,-22.72 l -4.73,25.29 c 16.63,13.14 35.69,19.72 57.18,19.72 25.8,0 44,-6.86 54.61,-20.58 9.75,-12.86 14.61,-34.01 14.61,-63.43 v -96.45 c 0,-14.85 0.71,-28.14 2.14,-39.85" /><path
         id="path254"
         style="fill:#b72531;fill-opacity:1;fill-rule:nonzero;stroke:none"
         d="m 3297.04,1329.91 h -7.3 c -14.57,0 -26.13,-5.14 -34.72,-15.43 -9.15,-11.14 -13.71,-26.72 -13.71,-46.72 v -131.15 h -24 v 159.02 c 0,16.28 -0.59,35.42 -1.72,57.43 h 22.29 c 0.86,-11.43 1.29,-23.72 1.29,-36.86 11.14,26.29 30.42,39.86 57.87,40.72 v -27.01" /><path
         id="path256"
         style="fill:#b72531;fill-opacity:1;fill-rule:nonzero;stroke:none"
         d="m 3451.76,1244.62 c 0,59.72 -18.29,89.58 -54.87,89.58 -36.29,0 -54.42,-29.86 -54.42,-89.58 0,-59.44 18.13,-89.16 54.42,-89.16 36.58,0 54.87,29.72 54.87,89.16 z m 25.72,0 c 0,-36.3 -7.01,-64.01 -21,-83.16 -14.01,-19.14 -33.87,-28.72 -59.59,-28.72 -25.71,0 -45.5,9.58 -59.36,28.72 -13.85,19.15 -20.79,46.86 -20.79,83.16 0,36.28 7,64.08 21.01,83.36 13.99,19.29 33.71,28.94 59.14,28.94 25.43,0 45.22,-9.72 59.37,-29.15 14.15,-19.44 21.22,-47.15 21.22,-83.15" /><path
         id="path258"
         style="fill:#b72531;fill-opacity:1;fill-rule:nonzero;stroke:none"
         d="m 3641.22,1230.89 v 27.87 c 0,24.57 -4.51,43.44 -13.5,56.58 -9,13.14 -21.37,19.72 -37.08,19.72 -33.15,0 -49.73,-30.15 -49.73,-90.44 0,-60.3 16.58,-90.44 49.73,-90.44 15.71,0 28.08,6.64 37.08,19.93 8.99,13.28 13.5,32.21 13.5,56.78 z m 24,-94.28 h -20.15 c -0.28,2.28 -0.71,12.7 -1.28,31.28 -13.72,-23.43 -31.29,-35.15 -52.72,-35.15 -50.59,0 -75.87,37.3 -75.87,111.88 0,74.86 25.28,112.3 75.87,112.3 21.43,0 38.14,-10.58 50.15,-31.72 v 130.73 h 24 v -319.32" /><path
         id="path260"
         style="fill:#b72531;fill-opacity:1;fill-rule:nonzero;stroke:none"
         d="m 3850.8,1244.62 c 0,59.72 -18.29,89.58 -54.87,89.58 -36.28,0 -54.43,-29.86 -54.43,-89.58 0,-59.44 18.15,-89.16 54.43,-89.16 36.58,0 54.87,29.72 54.87,89.16 z m 25.72,0 c 0,-36.3 -7,-64.01 -21.01,-83.16 -14,-19.14 -33.85,-28.72 -59.58,-28.72 -25.71,0 -45.5,9.58 -59.35,28.72 -13.86,19.15 -20.79,46.86 -20.79,83.16 0,36.28 6.99,64.08 21,83.36 14,19.29 33.71,28.94 59.14,28.94 25.44,0 45.23,-9.72 59.38,-29.15 14.14,-19.44 21.21,-47.15 21.21,-83.15" /><path
         id="path262"
         style="fill:#b72531;fill-opacity:1;fill-rule:nonzero;stroke:none"
         d="m 4171.42,1353.06 -57.87,-216.45 h -27.85 l -49.73,187.3 -45.87,-187.3 h -27.42 l -57,216.45 h 24.85 l 45.86,-189.88 47.15,189.88 h 27.43 l 48.87,-189.46 46.29,189.46 h 25.29" /><path
         id="path264"
         style="fill:#b72531;fill-opacity:1;fill-rule:nonzero;stroke:none"
         d="m 4320.58,1259.62 c 0,49.72 -14.86,74.58 -44.58,74.58 -29.72,0 -46.15,-24.86 -49.3,-74.58 z m 24.85,-0.43 c 0,-7.15 -0.13,-14.14 -0.42,-21 h -118.74 c 0,-26.87 5.23,-47.36 15.66,-61.51 10.42,-14.15 25.21,-21.22 44.35,-21.22 17.15,0 33.3,5 48.44,15 v -25.28 c -14.85,-8.3 -32.14,-12.44 -51.86,-12.44 -26.58,0 -47.01,9.58 -61.29,28.72 -14.3,19.15 -21.44,47 -21.44,83.59 0,34.85 6.99,62.42 21.01,82.72 13.72,19.43 31.85,29.15 54.43,29.15 21.71,0 38.79,-8.51 51.22,-25.51 12.44,-17 18.64,-41.07 18.64,-72.22" /><path
         id="path266"
         style="fill:#b72531;fill-opacity:1;fill-rule:nonzero;stroke:none"
         d="m 4663.47,1168.32 -1.29,-26.57 c -15.15,-6 -32.43,-9.01 -51.85,-9.01 -36.3,0 -65.88,13.72 -88.73,41.15 -23.72,28.3 -35.59,66.15 -35.59,113.59 0,46.29 11.37,83 34.08,110.16 22.73,27.14 52.65,40.72 89.8,40.72 16,0 33.01,-2.86 51,-8.58 l 0.86,-28.72 c -15.14,9.15 -32.29,13.72 -51.42,13.72 -30.3,0 -54.09,-10.98 -71.37,-32.94 -17.29,-21.98 -25.94,-52.79 -25.94,-92.44 0,-41.94 9.43,-74.74 28.28,-98.42 18.01,-23.11 42.3,-34.66 72.87,-34.66 17.15,0 33.58,4 49.3,12" /><path
         id="path268"
         style="fill:#b72531;fill-opacity:1;fill-rule:nonzero;stroke:none"
         d="m 4816.06,1259.62 c 0,49.72 -14.86,74.58 -44.57,74.58 -29.73,0 -46.15,-24.86 -49.31,-74.58 z m 24.85,-0.43 c 0,-7.15 -0.13,-14.14 -0.42,-21 h -118.74 c 0,-26.87 5.23,-47.36 15.66,-61.51 10.42,-14.15 25.21,-21.22 44.36,-21.22 17.14,0 33.28,5 48.43,15 v -25.28 c -14.85,-8.3 -32.14,-12.44 -51.86,-12.44 -26.58,0 -47.01,9.58 -61.28,28.72 -14.31,19.15 -21.45,47 -21.45,83.59 0,34.85 7,62.42 21.01,82.72 13.72,19.43 31.85,29.15 54.43,29.15 21.72,0 38.8,-8.51 51.23,-25.51 12.43,-17 18.63,-41.07 18.63,-72.22" /><path
         id="path270"
         style="fill:#b72531;fill-opacity:1;fill-rule:nonzero;stroke:none"
         d="m 5026.94,1136.61 h -24.01 v 150.44 c 0,31.72 -12.72,47.58 -38.15,47.58 -15.43,0 -27.78,-5.93 -37.07,-17.79 -9.3,-11.86 -13.94,-28.22 -13.94,-49.08 v -131.15 h -24 v 159.02 c 0,16.28 -0.57,35.42 -1.71,57.43 h 22.29 c 0,-0.58 0.43,-11.01 1.29,-31.29 12,23.43 30.57,35.15 55.72,35.15 18.57,0 33.14,-5.94 43.72,-17.79 10.56,-11.86 15.86,-28.79 15.86,-50.79 v -151.73" /><path
         id="path272"
         style="fill:#b72531;fill-opacity:1;fill-rule:nonzero;stroke:none"
         d="m 5158.52,1139.18 c -8.86,-3.15 -17.28,-4.72 -25.28,-4.72 -18.29,0 -30.3,5.85 -36.01,17.58 -4.29,8.85 -6.42,26.28 -6.42,52.28 v 127.31 h -31.72 v 21.43 h 31.72 v 43.72 l 24,6.86 v -50.58 h 43.71 v -21.43 h -43.71 v -134.59 c 0,-13.15 1,-22.15 3,-27 3.44,-8.29 10.85,-12.43 22.28,-12.43 5.43,0 11.58,1.13 18.43,3.42 v -21.85" /><path
         id="path274"
         style="fill:#b72531;fill-opacity:1;fill-rule:nonzero;stroke:none"
         d="m 5277.25,1329.91 h -7.28 c -14.58,0 -26.16,-5.14 -34.73,-15.43 -9.15,-11.14 -13.71,-26.72 -13.71,-46.72 v -131.15 h -24.01 v 159.02 c 0,16.28 -0.57,35.42 -1.71,57.43 h 22.29 c 0.86,-11.43 1.29,-23.72 1.29,-36.86 11.14,26.29 30.43,39.86 57.86,40.72 v -27.01" /><path
         id="path276"
         style="fill:#b72531;fill-opacity:1;fill-rule:nonzero;stroke:none"
         d="m 5446.57,1136.61 h -22.3 c -0.29,1.71 -0.71,12.13 -1.29,31.28 -12,-23.43 -30.58,-35.15 -55.72,-35.15 -18.58,0 -33.15,5.86 -43.72,17.58 -10.57,11.71 -15.86,28.57 -15.86,50.57 v 152.17 h 24 v -150.45 c 0,-31.72 12.72,-47.57 38.16,-47.57 15.43,0 27.78,5.92 37.07,17.78 9.28,11.86 13.93,28.22 13.93,49.08 v 131.16 h 24.01 v -159.02 c 0,-17.72 0.57,-36.86 1.72,-57.43" /><path
         id="path278"
         style="fill:#b72531;fill-opacity:1;fill-rule:nonzero;stroke:none"
         d="m 5741.02,1136.61 h -24 v 150.44 c 0,31.72 -11.43,47.58 -34.29,47.58 -13.72,0 -24.86,-5.93 -33.43,-17.79 -8.57,-11.86 -12.87,-28.22 -12.87,-49.08 v -131.15 h -23.99 v 150.44 c 0,31.72 -11.3,47.58 -33.87,47.58 -13.72,0 -24.86,-5.93 -33.44,-17.79 -8.56,-11.86 -12.85,-28.22 -12.85,-49.08 v -131.15 h -24 v 159.02 c 0,16.28 -0.58,35.42 -1.72,57.43 h 22.29 c 0,-0.58 0.43,-11.01 1.28,-31.29 11.72,23.43 28.86,35.15 51.44,35.15 11.72,0 22.08,-3.07 31.08,-9.22 9,-6.15 15.21,-14.36 18.63,-24.65 14.01,22.58 32.3,33.87 54.88,33.87 17.14,0 30.57,-5.94 40.29,-17.79 9.71,-11.86 14.57,-28.79 14.57,-50.79 v -151.73" /><path
         id="path280"
         style="fill:#b72531;fill-opacity:1;fill-rule:nonzero;stroke:none"
         d="m 2907.41,705.191 c 0,40.137 -22.58,60.219 -67.72,60.219 h -30.43 V 645.82 h 30.43 c 45.14,0 67.72,19.782 67.72,59.371 z m -7.29,136.95 c 0,19.988 -5.72,34.14 -17.15,42.429 -10.29,7.711 -27,11.578 -50.14,11.578 h -23.57 v -107.16 h 30.43 c 40.29,0 60.43,17.711 60.43,53.153 z m 33.44,-132.02 c 0,-30.582 -8.65,-52.871 -25.94,-66.871 -17.29,-14 -44.22,-21 -80.79,-21 h -42.44 v 297.469 h 55.3 c 58.28,0 87.42,-24.289 87.42,-72.867 0,-37.442 -16.42,-60.153 -49.27,-68.161 37.14,-8.562 55.72,-31.429 55.72,-68.57" /><path
         id="path282"
         style="fill:#b72531;fill-opacity:1;fill-rule:nonzero;stroke:none"
         d="m 3082.28,714.398 v 17.582 c -15.51,0.848 -23.4,1.282 -23.68,1.282 -47.09,0 -70.62,-16.711 -70.62,-50.153 0,-13.429 3.67,-23.929 10.98,-31.5 7.32,-7.57 17.3,-11.359 29.93,-11.359 35.59,0 53.39,24.719 53.39,74.148 z m 26.15,-92.148 h -22.71 l -3.44,25.289 c -12.28,-19.43 -30.29,-29.148 -54,-29.148 -20.58,0 -36.59,5.64 -48.02,16.929 -11.43,11.282 -17.13,26.93 -17.13,46.942 0,47.148 32.85,70.718 98.58,70.718 l 20.57,-0.859 v 15.859 c 0,34.86 -15.77,52.301 -47.33,52.301 -19.22,0 -36,-7.582 -50.33,-22.722 l -4.72,25.281 c 16.61,13.14 35.67,19.719 57.18,19.719 25.78,0 43.98,-6.848 54.59,-20.571 9.75,-12.859 14.61,-34.008 14.61,-63.437 v -96.442 c 0,-14.859 0.72,-28.148 2.15,-39.859" /><path
         id="path284"
         style="fill:#b72531;fill-opacity:1;fill-rule:nonzero;stroke:none"
         d="m 3280.74,716.551 v 27.859 c 0,24.57 -4.5,43.43 -13.5,56.578 -9,13.133 -21.37,19.711 -37.08,19.711 -33.15,0 -49.73,-30.148 -49.73,-90.437 0,-60.293 16.58,-90.43 49.73,-90.43 15.71,0 28.08,6.629 37.08,19.918 9,13.289 13.5,32.219 13.5,56.801 z m 24,-94.301 h -20.15 c -0.28,2.281 -0.71,12.711 -1.27,31.289 -13.73,-23.437 -31.3,-35.148 -52.73,-35.148 -50.58,0 -75.88,37.3 -75.88,111.871 0,74.859 25.3,112.297 75.88,112.297 21.43,0 38.15,-10.571 50.15,-31.719 v 130.738 h 24 V 622.25" /><path
         id="path286"
         style="fill:#b72531;fill-opacity:1;fill-rule:nonzero;stroke:none"
         d="m 3468.46,714.398 v 17.582 c -15.5,0.848 -23.39,1.282 -23.67,1.282 -47.1,0 -70.62,-16.711 -70.62,-50.153 0,-13.429 3.66,-23.929 10.97,-31.5 7.33,-7.57 17.31,-11.359 29.93,-11.359 35.59,0 53.39,24.719 53.39,74.148 z m 26.15,-92.148 h -22.71 l -3.44,25.289 c -12.28,-19.43 -30.29,-29.148 -54,-29.148 -20.58,0 -36.58,5.64 -48.01,16.929 -11.44,11.282 -17.13,26.93 -17.13,46.942 0,47.148 32.84,70.718 98.58,70.718 l 20.56,-0.859 v 15.859 c 0,34.86 -15.78,52.301 -47.32,52.301 -19.23,0 -36.01,-7.582 -50.33,-22.722 l -4.73,25.281 c 16.61,13.14 35.67,19.719 57.18,19.719 25.78,0 43.98,-6.848 54.59,-20.571 9.74,-12.859 14.61,-34.008 14.61,-63.437 v -96.442 c 0,-14.859 0.72,-28.148 2.15,-39.859" /><path
         id="path288"
         style="fill:#b72531;fill-opacity:1;fill-rule:nonzero;stroke:none"
         d="m 3661.78,924.012 -40.72,-61.301 h -21.87 l 30.87,61.301 z m 29.15,-301.762 h -24 v 150.449 c 0,31.723 -12.73,47.582 -38.16,47.582 -15.42,0 -27.79,-5.941 -37.07,-17.793 -9.29,-11.859 -13.93,-28.218 -13.93,-49.078 V 622.25 h -24.01 v 159.02 c 0,16.289 -0.56,35.429 -1.71,57.429 h 22.29 c 0,-0.57 0.43,-11 1.29,-31.277 12,23.418 30.58,35.137 55.72,35.137 18.57,0 33.15,-5.93 43.72,-17.789 10.57,-11.86 15.86,-28.79 15.86,-50.79 V 622.25" /><path
         id="path290"
         style="fill:#b72531;fill-opacity:1;fill-rule:nonzero;stroke:none"
         d="m 3877.81,622.25 h -24.01 v 216.449 h 24.01 z m 2.57,265.75 h -28.71 v 36.012 h 28.71 V 888" /><path
         id="path292"
         style="fill:#b72531;fill-opacity:1;fill-rule:nonzero;stroke:none"
         d="m 4164.12,844.078 c 0,20.652 -6.15,34.703 -18.44,42.16 -10.58,6.602 -28.87,9.91 -54.85,9.91 h -18.87 V 784.699 h 15.86 c 27.15,0 46.65,4.301 58.49,12.91 11.87,8.602 17.81,24.09 17.81,46.469 z m 45,-221.828 h -27.87 l -35.14,99.012 c -6,16.859 -11.86,27.718 -17.57,32.578 -5.71,4.851 -16.58,7.289 -32.57,7.289 h -24.01 V 622.25 h -24.86 v 297.469 h 42.86 c 34.58,0 59.72,-5.438 75.44,-16.309 17.14,-11.738 25.72,-31.762 25.72,-60.078 0,-41.203 -20.58,-65.242 -61.72,-72.102 11.13,-0.851 19.72,-4.57 25.71,-11.128 4.86,-5.43 9.86,-15.422 15,-29.973 l 39.01,-107.879" /><path
         id="path294"
         style="fill:#b72531;fill-opacity:1;fill-rule:nonzero;stroke:none"
         d="m 4369,730.262 c 0,59.718 -18.3,89.578 -54.87,89.578 -36.29,0 -54.44,-29.86 -54.44,-89.578 0,-59.442 18.15,-89.153 54.44,-89.153 36.57,0 54.87,29.711 54.87,89.153 z m 25.7,0 c 0,-36.293 -6.99,-64.012 -20.99,-83.153 -14,-19.14 -33.86,-28.718 -59.58,-28.718 -25.72,0 -45.5,9.578 -59.37,28.718 -13.86,19.141 -20.79,46.86 -20.79,83.153 0,36.289 7,64.078 21.01,83.367 14,19.293 33.71,28.93 59.15,28.93 25.43,0 45.22,-9.719 59.36,-29.137 14.14,-19.442 21.21,-47.152 21.21,-83.16" /><path
         id="path296"
         style="fill:#b72531;fill-opacity:1;fill-rule:nonzero;stroke:none"
         d="m 4554.59,622.25 h -129.44 v 26.141 L 4527.58,817.27 H 4429 v 21.429 h 123.89 v -26.14 L 4450.43,643.68 h 104.16 v -21.43" /><path
         id="path298"
         style="fill:#b72531;fill-opacity:1;fill-rule:nonzero;stroke:none"
         d="M 4844.34,838.699 4786.48,622.25 h -27.87 L 4708.9,809.559 4663.03,622.25 h -27.43 l -57.01,216.449 h 24.87 l 45.86,-189.871 47.15,189.871 h 27.43 l 48.85,-189.449 46.31,189.449 h 25.28" /><path
         id="path300"
         style="fill:#b72531;fill-opacity:1;fill-rule:nonzero;stroke:none"
         d="m 5008.92,730.262 c 0,59.718 -18.29,89.578 -54.86,89.578 -36.29,0 -54.44,-29.86 -54.44,-89.578 0,-59.442 18.15,-89.153 54.44,-89.153 36.57,0 54.86,29.711 54.86,89.153 z m 25.71,0 c 0,-36.293 -6.99,-64.012 -20.99,-83.153 -14,-19.14 -33.86,-28.718 -59.58,-28.718 -25.73,0 -45.51,9.578 -59.37,28.718 -13.86,19.141 -20.79,46.86 -20.79,83.153 0,36.289 7.01,64.078 21.01,83.367 14,19.293 33.71,28.93 59.15,28.93 25.43,0 45.22,-9.719 59.36,-29.137 14.14,-19.442 21.21,-47.152 21.21,-83.16" /><path
         id="path302"
         style="fill:#b72531;fill-opacity:1;fill-rule:nonzero;stroke:none"
         d="m 5110.94,888 h -29.15 v 36.012 h 29.15 z m -2.14,-281.18 c 0,-28.57 -2.04,-47.859 -6.11,-57.871 -5.54,-14.57 -17.07,-21.847 -34.62,-21.847 -7.42,0 -13.99,0.847 -19.71,2.57 v 23.137 c 5.14,-1.43 10,-2.137 14.57,-2.137 9.44,0 15.58,3.289 18.43,9.859 2,5.141 3.01,16.141 3.01,33 v 245.168 h 24.43 V 606.82" /><path
         id="path304"
         style="fill:#b72531;fill-opacity:1;fill-rule:nonzero;stroke:none"
         d="m 5307.25,622.25 h -22.29 c -0.3,1.711 -0.72,12.141 -1.28,31.289 -12.01,-23.437 -30.59,-35.148 -55.73,-35.148 -18.58,0 -33.16,5.859 -43.72,17.57 -10.57,11.719 -15.86,28.57 -15.86,50.578 v 152.16 h 24 V 688.262 c 0,-31.723 12.71,-47.582 38.15,-47.582 15.43,0 27.79,5.922 37.07,17.789 9.28,11.851 13.94,28.211 13.94,49.082 v 131.148 h 24 V 679.691 c 0,-17.73 0.58,-36.871 1.72,-57.441" /></g></g></svg>
