<?xml version="1.0" encoding="UTF-8" standalone="no"?>
<svg
   xmlns:dc="http://purl.org/dc/elements/1.1/"
   xmlns:cc="http://creativecommons.org/ns#"
   xmlns:rdf="http://www.w3.org/1999/02/22-rdf-syntax-ns#"
   xmlns:svg="http://www.w3.org/2000/svg"
   xmlns="http://www.w3.org/2000/svg"
   xmlns:sodipodi="http://sodipodi.sourceforge.net/DTD/sodipodi-0.dtd"
   xmlns:inkscape="http://www.inkscape.org/namespaces/inkscape"
   version="1.1"
   id="svg2"
   xml:space="preserve"
   width="573.56146"
   height="131.96919"
   viewBox="0 0 573.56146 131.96919"
   sodipodi:docname="rp-logo.svg"
   inkscape:version="1.0 (1.0+r73+1)"><metadata
     id="metadata8"><rdf:RDF><cc:Work
         rdf:about=""><dc:format>image/svg+xml</dc:format><dc:type
           rdf:resource="http://purl.org/dc/dcmitype/StillImage" /><dc:title></dc:title></cc:Work></rdf:RDF></metadata><defs
     id="defs6" /><sodipodi:namedview
     fit-margin-bottom="0"
     fit-margin-right="0"
     fit-margin-left="0"
     fit-margin-top="0"
     lock-margins="true"
     inkscape:document-rotation="0"
     pagecolor="#ffffff"
     bordercolor="#666666"
     borderopacity="1"
     objecttolerance="10"
     gridtolerance="10"
     guidetolerance="10"
     inkscape:pageopacity="0"
     inkscape:pageshadow="2"
     inkscape:window-width="1276"
     inkscape:window-height="1383"
     id="namedview4"
     showgrid="false"
     inkscape:zoom="1.9091241"
     inkscape:cx="212.38206"
     inkscape:cy="65.984599"
     inkscape:window-x="0"
     inkscape:window-y="0"
     inkscape:window-maximized="1"
     inkscape:current-layer="g12" /><g
     id="g10"
     inkscape:groupmode="layer"
     inkscape:label="ink_ext_XXXXXX"
     transform="matrix(1.3333333,0,0,-1.3333333,-94.326531,226.30666)"><g
       id="g12"
       transform="scale(0.1)"><path
         d="m 2595.81,1490.21 c 36.24,0 63.89,-6.61 83.08,-19.91 19.18,-13.21 28.79,-33.5 28.79,-60.8 0,-34.02 -16.76,-57.04 -50.35,-69.11 4.61,-5.58 9.78,-12.29 15.61,-20.29 5.76,-7.96 11.68,-16.61 17.72,-25.87 6.02,-9.28 11.78,-18.83 17.35,-28.62 5.58,-9.77 10.51,-19.34 14.91,-28.76 h -51.06 c -4.61,8.69 -9.57,17.46 -14.88,26.25 -5.31,8.8 -10.64,17.37 -16.11,25.71 -5.44,8.31 -10.79,16.14 -16.09,23.53 -5.31,7.34 -10.26,13.92 -14.86,19.73 -3.36,-0.29 -6.25,-0.37 -8.67,-0.37 h -6.87 -22.08 v -94.85 h -45.66 v 247.23 c 11.13,2.4 22.96,4.06 35.54,4.92 12.52,0.84 23.74,1.21 33.63,1.21 m 3.24,-39.42 c -9.66,0 -18.57,-0.4 -26.75,-1.07 v -81.11 h 19.9 c 11.1,0 20.85,0.61 29.29,1.84 8.48,1.16 15.54,3.36 21.2,6.5 5.64,3.1 9.94,7.34 12.86,12.65 2.88,5.31 4.32,12.08 4.32,20.29 0,7.68 -1.44,14.23 -4.32,19.52 -2.92,5.3 -7.07,9.53 -12.53,12.69 -5.35,3.14 -11.83,5.39 -19.36,6.68 -7.48,1.32 -15.7,2.01 -24.61,2.01"
         style="fill:#231f20;fill-opacity:1;fill-rule:nonzero;stroke:none"
         id="path14" /><path
         d="m 2891.57,1395.4 c -4.88,-5.02 -11.14,-12.19 -19.01,-21.34 -7.84,-9.19 -16.21,-19.35 -25.19,-30.59 -8.94,-11.23 -17.88,-22.94 -26.93,-35.13 -9.06,-12.18 -17.2,-23.83 -24.42,-34.94 h 97.67 v -36.54 h -150.54 v 27.11 c 5.3,9.71 11.97,20.17 19.92,31.54 7.96,11.33 16.18,22.74 24.59,34.21 8.47,11.44 16.85,22.36 25.18,32.73 8.3,10.38 15.75,19.46 22.25,27.13 h -87.24 v 36.6 h 143.72 v -30.78"
         style="fill:#231f20;fill-opacity:1;fill-rule:nonzero;stroke:none"
         id="path16" /><path
         d="m 2917.62,1330.62 c 0,16.61 2.43,31.22 7.42,43.78 4.93,12.59 11.53,23 19.69,31.34 8.27,8.3 17.61,14.61 28.28,18.83 10.59,4.19 21.5,6.3 32.57,6.3 26.1,0 46.41,-8.07 61.03,-24.25 14.64,-16.19 21.88,-40.32 21.88,-72.37 0,-2.47 -0.06,-5.16 -0.19,-8.16 -0.12,-3.03 -0.35,-5.76 -0.54,-8.14 h -124.88 c 1.16,-15.23 6.58,-26.99 16.08,-35.27 9.54,-8.35 23.39,-12.55 41.48,-12.55 10.59,0 20.31,1.01 29.12,2.92 8.8,1.93 15.77,4.01 20.81,6.16 l 5.84,-35.82 c -2.45,-1.24 -5.76,-2.51 -10,-3.84 -4.22,-1.33 -9.07,-2.55 -14.42,-3.62 -5.47,-1.08 -11.3,-2 -17.62,-2.69 -6.25,-0.74 -12.68,-1.1 -19.14,-1.1 -16.7,0 -31.15,2.47 -43.46,7.41 -12.31,5 -22.43,11.82 -30.44,20.67 -7.96,8.77 -13.85,19.15 -17.72,31.14 -3.86,11.91 -5.79,24.98 -5.79,39.26 m 127.06,19.54 c 0,6.01 -0.85,11.75 -2.55,17.18 -1.64,5.42 -4.13,10.15 -7.36,14.12 -3.31,3.97 -7.27,7.13 -12,9.44 -4.68,2.28 -10.28,3.43 -16.83,3.43 -6.77,0 -12.68,-1.26 -17.75,-3.8 -5.04,-2.56 -9.35,-5.86 -12.82,-9.97 -3.52,-4.12 -6.23,-8.82 -8.14,-14.1 -1.96,-5.31 -3.24,-10.76 -4.04,-16.3 h 81.49"
         style="fill:#231f20;fill-opacity:1;fill-rule:nonzero;stroke:none"
         id="path18" /><path
         d="m 3124.31,1331.33 c 0,13.98 2.19,27.1 6.57,39.27 4.31,12.18 10.51,22.76 18.58,31.68 8.1,8.91 17.99,15.9 29.54,20.99 11.64,5.07 24.58,7.61 39.11,7.61 17.81,0 34.75,-3.22 50.65,-9.78 l -9.37,-35.82 c -5.1,2.16 -10.84,3.96 -17.19,5.38 -6.42,1.47 -13.22,2.19 -20.47,2.19 -17.16,0 -30.18,-5.32 -39.11,-16.1 -8.91,-10.74 -13.37,-25.91 -13.37,-45.42 0,-18.84 4.2,-33.76 12.7,-44.7 8.38,-11 22.62,-16.5 42.67,-16.5 7.5,0 14.81,0.78 22.08,2.18 7.26,1.44 13.52,3.28 18.84,5.43 l 6.14,-36.19 c -4.84,-2.38 -12.14,-4.58 -21.91,-6.5 -9.75,-1.95 -19.82,-2.89 -30.22,-2.89 -16.2,0 -30.25,2.46 -42.19,7.38 -11.93,5 -21.81,11.83 -29.65,20.67 -7.85,8.78 -13.74,19.3 -17.56,31.5 -3.88,12.17 -5.84,25.39 -5.84,39.62"
         style="fill:#231f20;fill-opacity:1;fill-rule:nonzero;stroke:none"
         id="path20" /><path
         d="m 3438.17,1395.4 c -4.79,-5.02 -11.21,-12.19 -19,-21.34 -7.85,-9.19 -16.25,-19.35 -25.15,-30.59 -8.92,-11.23 -17.92,-22.94 -26.98,-35.13 -9.04,-12.18 -17.22,-23.83 -24.48,-34.94 h 97.76 v -36.54 h -150.54 v 27.11 c 5.29,9.71 11.89,20.17 19.88,31.54 7.95,11.33 16.14,22.74 24.63,34.21 8.45,11.44 16.83,22.36 25.13,32.73 8.38,10.38 15.77,19.46 22.28,27.13 h -87.25 v 36.6 h 143.72 v -30.78"
         style="fill:#231f20;fill-opacity:1;fill-rule:nonzero;stroke:none"
         id="path22" /><path
         d="m 3651.35,1331.33 c 0,-14.45 -1.84,-27.77 -5.61,-39.83 -3.76,-12.06 -9.07,-22.44 -16.06,-31.12 -7.02,-8.7 -15.77,-15.45 -26.28,-20.26 -10.5,-4.85 -22.4,-7.27 -35.65,-7.27 -8.98,0 -17.19,1.08 -24.61,3.27 -7.47,2.19 -13.61,4.58 -18.46,7.28 v -73.5 h -43.81 v 250.12 c 8.89,2.4 19.88,4.7 32.93,6.84 13.06,2.2 26.79,3.32 41.26,3.32 14.98,0 28.35,-2.3 40.19,-6.91 11.81,-4.58 21.89,-11.16 30.24,-19.71 8.35,-8.57 14.73,-18.97 19.17,-31.14 4.48,-12.19 6.69,-25.88 6.69,-41.09 m -44.86,-0.71 c 0,19.54 -4.41,34.76 -13.22,45.58 -8.81,10.86 -23.02,16.3 -42.53,16.3 -4.08,0 -8.39,-0.17 -12.83,-0.51 -4.48,-0.4 -8.87,-1.16 -13.23,-2.39 v -108.25 c 3.88,-2.6 9.04,-5.1 15.37,-7.37 6.38,-2.31 13.24,-3.46 20.42,-3.46 15.92,0 27.67,5.41 34.97,16.29 7.34,10.84 11.05,25.46 11.05,43.81"
         style="fill:#231f20;fill-opacity:1;fill-rule:nonzero;stroke:none"
         id="path24" /><path
         d="m 3867.87,1331.7 c 0,-15 -2.18,-28.59 -6.54,-40.89 -4.33,-12.34 -10.5,-22.83 -18.46,-31.52 -7.96,-8.66 -17.56,-15.45 -28.74,-20.29 -11.25,-4.8 -23.63,-7.22 -37.16,-7.22 -13.45,0 -25.83,2.42 -36.9,7.22 -11.1,4.84 -20.64,11.63 -28.6,20.29 -7.96,8.69 -14.16,19.18 -18.6,31.52 -4.54,12.3 -6.74,25.89 -6.74,40.89 0,14.97 2.2,28.53 6.74,40.72 4.44,12.18 10.7,22.64 18.77,31.32 8.1,8.68 17.64,15.38 28.85,20.06 11.02,4.72 23.23,7.07 36.48,7.07 13.34,0 25.52,-2.35 36.78,-7.07 11.19,-4.68 20.79,-11.38 28.75,-20.06 7.95,-8.68 14.21,-19.14 18.69,-31.32 4.44,-12.19 6.68,-25.75 6.68,-40.72 m -44.95,0 c 0,18.84 -3.96,33.71 -12.09,44.67 -8.12,10.99 -19.36,16.48 -33.86,16.48 -14.47,0 -25.77,-5.49 -33.84,-16.48 -8.05,-10.96 -12.15,-25.83 -12.15,-44.67 0,-19.04 4.1,-34.15 12.15,-45.27 8.07,-11.07 19.37,-16.63 33.84,-16.63 14.5,0 25.74,5.56 33.86,16.63 8.13,11.12 12.09,26.23 12.09,45.27"
         style="fill:#231f20;fill-opacity:1;fill-rule:nonzero;stroke:none"
         id="path26" /><path
         d="m 3960.47,1268.36 c 11.64,0 20.08,1.39 25.37,4.16 5.3,2.75 8.02,7.52 8.02,14.29 0,6.28 -2.86,11.46 -8.55,15.54 -5.67,4.14 -15.07,8.61 -28.07,13.41 -7.96,2.88 -15.26,5.95 -21.88,9.27 -6.66,3.23 -12.39,7.02 -17.22,11.36 -4.81,4.36 -8.64,9.63 -11.39,15.77 -2.77,6.16 -4.14,13.68 -4.14,22.6 0,17.37 6.35,31.04 19.15,41.08 12.78,10.04 30.19,15.04 52.16,15.04 11.08,0 21.66,-1.02 31.81,-3.07 10.19,-2.09 17.78,-4.05 22.88,-6 l -8.02,-35.44 c -4.84,2.15 -10.99,4.16 -18.47,5.96 -7.41,1.8 -16.11,2.73 -26.04,2.73 -8.93,0 -16.17,-1.54 -21.7,-4.53 -5.63,-3 -8.38,-7.7 -8.38,-13.93 0,-3.15 0.54,-5.92 1.64,-8.33 1.11,-2.43 2.98,-4.67 5.61,-6.74 2.66,-2.02 6.12,-4.07 10.53,-6.14 4.28,-2.05 9.66,-4.15 15.89,-6.32 10.42,-3.86 19.23,-7.67 26.45,-11.39 7.25,-3.74 13.25,-7.98 17.93,-12.65 4.64,-4.73 8.15,-10.11 10.27,-16.16 2.24,-6.03 3.29,-13.25 3.29,-21.7 0,-18.11 -6.69,-31.8 -20.11,-41.09 -13.36,-9.3 -32.5,-13.92 -57.34,-13.92 -16.65,0 -30.08,1.39 -40.21,4.15 -10.14,2.76 -17.25,5 -21.38,6.69 l 7.65,36.6 c 6.51,-2.7 14.26,-5.23 23.33,-7.61 9.03,-2.46 19.37,-3.63 30.92,-3.63"
         style="fill:#231f20;fill-opacity:1;fill-rule:nonzero;stroke:none"
         id="path28" /><path
         d="m 4249.01,1331.33 c 0,-14.45 -1.91,-27.77 -5.61,-39.83 -3.71,-12.06 -9.12,-22.44 -16.14,-31.12 -6.94,-8.7 -15.75,-15.45 -26.2,-20.26 -10.5,-4.85 -22.39,-7.27 -35.64,-7.27 -8.99,0 -17.14,1.08 -24.67,3.27 -7.48,2.19 -13.63,4.58 -18.41,7.28 v -73.5 h -43.81 v 250.12 c 8.95,2.4 19.88,4.7 32.93,6.84 13.06,2.2 26.8,3.32 41.26,3.32 14.98,0 28.41,-2.3 40.24,-6.91 11.75,-4.58 21.84,-11.16 30.16,-19.71 8.33,-8.57 14.7,-18.97 19.2,-31.14 4.48,-12.19 6.69,-25.88 6.69,-41.09 m -44.86,-0.71 c 0,19.54 -4.48,34.76 -13.23,45.58 -8.83,10.86 -22.96,16.3 -42.53,16.3 -4.14,0 -8.43,-0.17 -12.92,-0.51 -4.44,-0.4 -8.77,-1.16 -13.13,-2.39 v -108.25 c 3.82,-2.6 8.94,-5.1 15.38,-7.37 6.43,-2.31 13.22,-3.46 20.41,-3.46 15.98,0 27.53,5.41 34.98,16.29 7.36,10.84 11.04,25.46 11.04,43.81"
         style="fill:#231f20;fill-opacity:1;fill-rule:nonzero;stroke:none"
         id="path30" /><path
         d="m 4465.5,1331.7 c 0,-15 -2.16,-28.59 -6.51,-40.89 -4.37,-12.34 -10.51,-22.83 -18.47,-31.52 -8.02,-8.66 -17.56,-15.45 -28.8,-20.29 -11.18,-4.8 -23.56,-7.22 -37.1,-7.22 -13.5,0 -25.82,2.42 -36.89,7.22 -11.1,4.84 -20.65,11.63 -28.6,20.29 -7.96,8.69 -14.16,19.18 -18.61,31.52 -4.53,12.3 -6.74,25.89 -6.74,40.89 0,14.97 2.21,28.53 6.74,40.72 4.45,12.18 10.71,22.64 18.8,31.32 8.08,8.68 17.68,15.38 28.72,20.06 11.13,4.72 23.33,7.07 36.58,7.07 13.23,0 25.52,-2.35 36.79,-7.07 11.19,-4.68 20.79,-11.38 28.74,-20.06 8.02,-8.68 14.16,-19.14 18.61,-31.32 4.54,-12.19 6.74,-25.75 6.74,-40.72 m -44.86,0 c 0,18.84 -4.1,33.71 -12.15,44.67 -8.07,10.99 -19.36,16.48 -33.87,16.48 -14.47,0 -25.77,-5.49 -33.83,-16.48 -8.1,-10.96 -12.09,-25.83 -12.09,-44.67 0,-19.04 3.99,-34.15 12.09,-45.27 8.06,-11.07 19.36,-16.63 33.83,-16.63 14.51,0 25.8,5.56 33.87,16.63 8.05,11.12 12.15,26.23 12.15,45.27"
         style="fill:#231f20;fill-opacity:1;fill-rule:nonzero;stroke:none"
         id="path32" /><path
         d="m 4576.6,1233.24 c -13.06,0.24 -23.82,1.68 -32.38,4.34 -8.57,2.65 -15.43,6.42 -20.45,11.41 -5.06,4.93 -8.66,11.08 -10.67,18.46 -2.06,7.37 -3.09,15.75 -3.09,25.14 V 1478 l 43.78,7.24 v -184.32 c 0,-5.3 0.43,-9.8 1.25,-13.41 0.88,-3.63 2.36,-6.7 4.59,-9.23 2.09,-2.52 5.07,-4.45 8.8,-5.78 3.77,-1.33 8.53,-2.37 14.31,-3.06 l -6.14,-36.2"
         style="fill:#231f20;fill-opacity:1;fill-rule:nonzero;stroke:none"
         id="path34" /><path
         d="m 4667.09,1481.53 c 0,-8.19 -2.65,-14.68 -7.94,-19.52 -5.31,-4.85 -11.62,-7.24 -18.84,-7.24 -7.42,0 -13.85,2.39 -19.14,7.24 -5.3,4.84 -7.96,11.33 -7.96,19.52 0,8.47 2.66,15.11 7.96,19.91 5.29,4.85 11.72,7.26 19.14,7.26 7.22,0 13.53,-2.41 18.84,-7.26 5.29,-4.8 7.94,-11.44 7.94,-19.91 m -4.72,-244.67 h -43.75 v 189.32 h 43.75 v -189.32"
         style="fill:#231f20;fill-opacity:1;fill-rule:nonzero;stroke:none"
         id="path36" /><path
         d="m 4715.95,1478 43.83,7.23 v -59.05 h 67.31 v -36.6 h -67.31 v -77.09 c 0,-15.17 2.38,-26.04 7.23,-32.54 4.81,-6.56 13.05,-9.82 24.61,-9.82 8,0 15.05,0.85 21.21,2.54 6.17,1.7 11.04,3.26 14.64,4.74 l 7.27,-34.8 c -5.1,-2.14 -11.78,-4.38 -19.96,-6.68 -8.21,-2.28 -17.87,-3.43 -28.95,-3.43 -13.53,0 -24.83,1.81 -33.8,5.43 -9.07,3.6 -16.29,8.89 -21.59,15.75 -5.35,6.88 -9.03,15.22 -11.18,24.99 -2.23,9.76 -3.31,20.9 -3.31,33.46 V 1478"
         style="fill:#231f20;fill-opacity:1;fill-rule:nonzero;stroke:none"
         id="path38" /><path
         d="m 4932.42,1430.88 c 14.52,0 26.67,-1.81 36.58,-5.42 9.88,-3.65 17.78,-8.69 23.73,-15.17 5.89,-6.55 10.14,-14.46 12.69,-23.78 2.49,-9.29 3.74,-19.44 3.74,-30.59 v -114.73 c -6.71,-1.43 -16.91,-3.2 -30.56,-5.26 -13.67,-2.03 -29.02,-3.08 -46.18,-3.08 -11.3,0 -21.67,1.1 -31.1,3.26 -9.4,2.21 -17.45,5.66 -24.07,10.51 -6.66,4.84 -11.83,11.1 -15.55,18.83 -3.77,7.73 -5.63,17.25 -5.63,28.58 0,10.85 2.12,20.03 6.31,27.53 4.25,7.46 9.97,13.57 17.24,18.29 7.23,4.69 15.58,8.08 25.15,10.12 9.55,2.03 19.46,3.08 29.88,3.08 4.76,0 9.86,-0.28 15.15,-0.91 5.32,-0.61 10.99,-1.58 17.05,-3.07 v 7.24 c 0,5.08 -0.6,9.92 -1.82,14.45 -1.22,4.62 -3.28,8.65 -6.36,12.14 -3.04,3.5 -7,6.23 -11.93,8.16 -4.93,1.92 -11.16,2.91 -18.63,2.91 -10.14,0 -19.42,-0.78 -27.9,-2.19 -8.44,-1.4 -15.28,-3.1 -20.59,-5.06 l -5.45,35.47 c 5.51,1.94 13.61,3.84 24.23,5.76 10.65,1.96 21.95,2.93 34.02,2.93 m 3.65,-163.29 c 13.51,0 23.76,0.77 30.78,2.21 v 48.49 c -2.47,0.74 -5.95,1.43 -10.51,2.19 -4.62,0.68 -9.66,1.08 -15.23,1.08 -4.76,0 -9.66,-0.4 -14.64,-1.08 -4.93,-0.76 -9.4,-2.06 -13.43,-3.99 -3.93,-1.92 -7.11,-4.64 -9.54,-8.15 -2.44,-3.49 -3.62,-7.92 -3.62,-13.21 0,-10.38 3.25,-17.53 9.76,-21.54 6.49,-3.99 15.36,-6 26.43,-6"
         style="fill:#231f20;fill-opacity:1;fill-rule:nonzero;stroke:none"
         id="path40" /><path
         d="m 2597.62,1154.6 c 36.41,0 64.31,-6.6 83.76,-19.9 19.46,-13.27 29.12,-34.02 29.12,-62.28 0,-14.71 -2.59,-27.32 -7.74,-37.82 -5.24,-10.49 -12.76,-19.05 -22.6,-25.66 -9.92,-6.69 -21.99,-11.542 -36.21,-14.69 -14.29,-3.16 -30.53,-4.691 -48.89,-4.691 h -22.83 v -88.321 h -45.6 v 247.222 c 10.61,2.37 22.38,4.05 35.29,4.87 12.93,0.85 24.82,1.27 35.7,1.27 m 3.2,-39.41 c -11.53,0 -21.05,-0.4 -28.59,-1.1 v -85.48 h 22.15 c 21.91,0 38.8,3.08 50.66,9.28 11.83,6.12 17.74,17.76 17.74,34.92 0,8.18 -1.62,15.07 -4.75,20.61 -3.07,5.57 -7.48,9.91 -12.99,13.05 -5.54,3.13 -12.14,5.34 -19.79,6.7 -7.58,1.3 -15.75,2.02 -24.43,2.02"
         style="fill:#231f20;fill-opacity:1;fill-rule:nonzero;stroke:none"
         id="path42" /><path
         d="m 2914.7,996.051 c 0,-14.949 -2.18,-28.59 -6.52,-40.879 -4.3,-12.352 -10.45,-22.801 -18.45,-31.512 -7.91,-8.68 -17.54,-15.43 -28.77,-20.269 -11.22,-4.84 -23.61,-7.243 -37.15,-7.243 -13.52,0 -25.82,2.403 -36.86,7.243 -11.17,4.839 -20.69,11.589 -28.59,20.269 -8.02,8.711 -14.25,19.16 -18.7,31.512 -4.46,12.289 -6.69,25.93 -6.69,40.879 0,14.969 2.23,28.569 6.69,40.709 4.45,12.22 10.76,22.63 18.83,31.32 8.1,8.73 17.69,15.43 28.82,20.1 11.07,4.7 23.22,7.06 36.5,7.06 13.32,0 25.52,-2.36 36.77,-7.06 11.22,-4.67 20.81,-11.37 28.76,-20.1 7.96,-8.69 14.24,-19.1 18.68,-31.32 4.45,-12.14 6.68,-25.74 6.68,-40.709 m -44.88,0 c 0,18.819 -4.02,33.709 -12.16,44.689 -8.06,11.01 -19.36,16.46 -33.85,16.46 -14.43,0 -25.72,-5.45 -33.79,-16.46 -8.09,-10.98 -12.14,-25.87 -12.14,-44.689 0,-19.051 4.05,-34.16 12.14,-45.242 8.07,-11.098 19.36,-16.668 33.79,-16.668 14.49,0 25.79,5.57 33.85,16.668 8.14,11.082 12.16,26.191 12.16,45.242"
         style="fill:#231f20;fill-opacity:1;fill-rule:nonzero;stroke:none"
         id="path44" /><path
         d="m 3025.85,897.609 c -13.05,0.243 -23.81,1.7 -32.42,4.301 -8.55,2.711 -15.38,6.481 -20.48,11.43 -5.03,4.969 -8.58,11.101 -10.66,18.5 -2.01,7.332 -3.07,15.711 -3.07,25.121 v 184.959 l 43.81,7.26 V 965.262 c 0,-5.293 0.48,-9.75 1.27,-13.371 0.85,-3.621 2.36,-6.68 4.53,-9.219 2.21,-2.524 5.13,-4.453 8.9,-5.801 3.68,-1.351 8.44,-2.351 14.27,-3.101 l -6.15,-36.161"
         style="fill:#231f20;fill-opacity:1;fill-rule:nonzero;stroke:none"
         id="path46" /><path
         d="m 3114.89,932.719 c 11.61,0 20.05,1.383 25.34,4.152 5.29,2.801 7.96,7.551 7.96,14.27 0,6.289 -2.8,11.507 -8.5,15.578 -5.66,4.121 -15.07,8.57 -28.06,13.39 -7.96,2.911 -15.27,5.993 -21.89,9.262 -6.69,3.27 -12.37,7.02 -17.22,11.399 -4.87,4.3 -8.64,9.59 -11.38,15.72 -2.78,6.21 -4.16,13.73 -4.16,22.64 0,17.39 6.36,31.07 19.17,41.07 12.83,10.02 30.18,15.06 52.11,15.06 11.12,0 21.74,-1.05 31.93,-3.07 10.12,-2.08 17.71,-4.08 22.8,-6.01 l -8.01,-35.47 c -4.85,2.2 -10.99,4.18 -18.41,5.97 -7.53,1.84 -16.22,2.71 -26.11,2.71 -8.89,0 -16.17,-1.5 -21.74,-4.5 -5.53,-3.02 -8.28,-7.67 -8.28,-13.94 0,-3.15 0.54,-5.92 1.59,-8.33 1.1,-2.4 2.92,-4.63 5.63,-6.71 2.61,-2.05 6.15,-4.1 10.45,-6.13 4.39,-2.09 9.72,-4.15 15.95,-6.36 10.42,-3.87 19.17,-7.63 26.47,-11.41 7.23,-3.729 13.18,-7.959 17.96,-12.639 4.67,-4.723 8.1,-10.101 10.27,-16.109 2.13,-6.071 3.24,-13.293 3.24,-21.75 0,-18.071 -6.68,-31.75 -20.11,-41.051 -13.37,-9.313 -32.51,-13.961 -57.4,-13.961 -16.59,0 -29.96,1.441 -40.1,4.191 -10.17,2.77 -17.31,5 -21.38,6.7 l 7.59,36.55 c 6.54,-2.652 14.33,-5.203 23.28,-7.601 9.08,-2.43 19.37,-3.621 31.01,-3.621"
         style="fill:#231f20;fill-opacity:1;fill-rule:nonzero;stroke:none"
         id="path48" /><path
         d="m 3276.67,1016.71 c 5.58,5.74 11.47,11.97 17.78,18.61 6.26,6.66 12.46,13.27 18.47,19.91 5.97,6.66 11.74,13.04 17.21,19.2 5.38,6.14 10.06,11.53 13.91,16.1 h 51.74 c -12.02,-13.48 -24.67,-27.48 -38.04,-42.01 -13.36,-14.46 -26.85,-28.6 -40.32,-42.35 7.24,-6 14.87,-13.311 22.77,-21.869 7.95,-8.571 15.68,-17.692 23.16,-27.34 7.45,-9.672 14.45,-19.289 20.9,-28.961 6.55,-9.66 11.9,-18.578 16.28,-26.762 h -50.74 c -4.31,7.461 -9.29,15.293 -14.98,23.504 -5.66,8.207 -11.76,16.168 -18.3,23.93 -6.51,7.687 -13.17,14.976 -19.87,21.859 -6.8,6.899 -13.37,12.707 -19.97,17.578 v -86.871 h -43.81 v 240.682 l 43.81,7.26 v -132.47"
         style="fill:#231f20;fill-opacity:1;fill-rule:nonzero;stroke:none"
         id="path50" /><path
         d="m 3495.35,1095.26 c 14.49,0 26.64,-1.84 36.55,-5.45 9.91,-3.63 17.78,-8.7 23.7,-15.18 5.9,-6.54 10.14,-14.42 12.69,-23.73 2.54,-9.29 3.82,-19.48 3.82,-30.59 V 905.539 c -6.73,-1.43 -16.96,-3.199 -30.61,-5.23 -13.7,-2.059 -29.02,-3.079 -46.15,-3.079 -11.3,0 -21.7,1.09 -31.16,3.231 -9.37,2.199 -17.44,5.699 -24.07,10.551 -6.6,4.84 -11.83,11.07 -15.54,18.82 -3.77,7.699 -5.58,17.207 -5.58,28.598 0,10.832 2.09,19.98 6.28,27.519 4.23,7.449 10,13.52 17.22,18.251 7.22,4.74 15.6,8.08 25.15,10.11 9.57,2.09 19.43,3.09 29.82,3.09 4.81,0 9.91,-0.28 15.23,-0.91 5.29,-0.56 10.96,-1.6 17.08,-3.07 v 7.26 c 0,5.1 -0.62,9.9 -1.87,14.46 -1.22,4.63 -3.29,8.61 -6.31,12.15 -3.07,3.45 -7.01,6.23 -11.99,8.15 -4.93,1.91 -11.13,2.88 -18.63,2.88 -10.11,0 -19.39,-0.74 -27.89,-2.2 -8.44,-1.4 -15.26,-3.11 -20.59,-5.06 l -5.46,35.5 c 5.57,1.92 13.65,3.86 24.29,5.78 10.62,1.92 21.92,2.92 34.02,2.92 m 3.62,-163.291 c 13.51,0 23.7,0.75 30.81,2.172 v 48.5 c -2.49,0.781 -5.95,1.468 -10.57,2.191 -4.62,0.727 -9.65,1.117 -15.23,1.117 -4.81,0 -9.66,-0.39 -14.58,-1.117 -4.99,-0.723 -9.43,-2.031 -13.49,-3.961 -3.96,-1.949 -7.11,-4.68 -9.57,-8.152 -2.4,-3.52 -3.62,-7.91 -3.62,-13.219 0,-10.359 3.28,-17.559 9.85,-21.531 6.43,-3.989 15.3,-6 26.4,-6"
         style="fill:#231f20;fill-opacity:1;fill-rule:nonzero;stroke:none"
         id="path52" /><path
         d="M 707.449,1202.12 H 2194.17 V 1697.3 H 707.449 v -495.18"
         style="fill:#ffffff;fill-opacity:1;fill-rule:nonzero;stroke:none"
         id="path54" /><path
         d="M 707.449,707.531 H 2194.17 V 1202.12 H 707.449 V 707.531"
         style="fill:#b7182e;fill-opacity:1;fill-rule:nonzero;stroke:none"
         id="path56" /></g></g></svg>
